<?xml version="1.0" encoding="UTF-8"?>
<svg id="Camada_1" data-name="Camada 1" xmlns="http://www.w3.org/2000/svg" version="1.1" viewBox="0 0 100 100">
  <defs>
    <style>
      .cls-1, .cls-2, .cls-3, .cls-4 {
        stroke-width: 0px;
      }

      .cls-1, .cls-3 {
        fill-rule: evenodd;
      }

      .cls-1, .cls-4 {
        fill: #f9f0d7;
      }

      .cls-2 {
        fill: #344342;
      }

      .cls-3 {
        fill: #32455b;
      }
    </style>
  </defs>
  <g>
    <path class="cls-1" d="M50,98.3C23.4,98.3,1.7,76.6,1.7,50S23.4,1.7,50,1.7s48.3,21.7,48.3,48.3-21.7,48.3-48.3,48.3Z"/>
    <path class="cls-2" d="M50,3.4c25.6,0,46.6,20.9,46.6,46.6s-20.9,46.6-46.6,46.6S3.4,75.6,3.4,50,24.4,3.4,50,3.4M50,0C22.4,0,0,22.4,0,50s22.4,50,50,50,50-22.4,50-50S77.6,0,50,0h0Z"/>
  </g>
  <path class="cls-3" d="M50,84.8c19.2,0,34.8-15.6,34.8-34.8S69.2,15.2,50,15.2,15.2,30.8,15.2,50s15.6,34.8,34.8,34.8Z"/>
  <path class="cls-4" d="M43.9,50c0,2.7.9,4.9,2.7,6.7,1.8,1.8,4,2.7,6.7,2.7s3.1-.3,4.4-.9c1.4-.6,2.5-1.4,3.4-2.5v10.3c-1.2.5-2.5,1-3.9,1.2-1.4.3-2.8.4-4.2.4-2.4,0-4.8-.5-7-1.4-2.2-.9-4.2-2.2-5.9-3.8-1.7-1.7-3.1-3.6-4-5.8-.9-2.2-1.4-4.5-1.4-6.9s.5-4.7,1.4-6.9c.9-2.2,2.3-4.2,4-5.8,1.7-1.7,3.7-2.9,5.9-3.8,2.2-.9,4.5-1.4,7-1.4s2.8.1,4.2.4c1.4.3,2.7.7,3.9,1.2v10.3c-.9-1-2.1-1.9-3.4-2.5-1.4-.6-2.8-.9-4.4-.9-2.7,0-4.9.9-6.7,2.7-1.8,1.8-2.7,4-2.7,6.7Z"/>
</svg>