<?xml version="1.0" encoding="UTF-8"?>
<!-- Generator: Adobe Illustrator 27.0.0, SVG Export Plug-In . SVG Version: 6.00 Build 0)  -->
<svg version="1.1" xmlns="http://www.w3.org/2000/svg" xmlns:xlink="http://www.w3.org/1999/xlink" x="0px" y="0px" viewBox="0 0 225.4 180.3" style="enable-background:new 0 0 225.4 180.3;" xml:space="preserve">
<style type="text/css">
	.st0{display:none;}
	.st1{display:inline;}
	.st2{fill:#FFFFFF;}
	.st3{display:none;fill:#1D1D1B;stroke:#727272;stroke-width:12;stroke-miterlimit:10;}
	.st4{fill:#1D1D1B;stroke:#727272;stroke-width:12;stroke-miterlimit:10;}
	.st5{fill:#1D1D1B;stroke:#727272;stroke-width:12.2002;stroke-miterlimit:10;}
	.st6{display:none;fill:#1D1D1B;stroke:#727272;stroke-width:8;stroke-miterlimit:10;}
	.st7{fill:#1D1D1B;stroke:#727272;stroke-width:10.2498;stroke-miterlimit:10;}
	.st8{display:none;fill:#1D1D1B;stroke:#727272;stroke-width:14;stroke-linecap:round;stroke-miterlimit:10;}
	.st9{fill:#1D1D1B;stroke:#727272;stroke-width:4;stroke-miterlimit:10;}
	.st10{fill:#1D1D1B;stroke:#727272;stroke-width:14.6361;stroke-miterlimit:10;}
</style>
<g id="Camada_1" class="st0">
	<g class="st1">
		
			<image style="overflow:visible;opacity:0.5;enable-background:new    ;" width="896" height="654" xlink:href="382359FC.png" transform="matrix(0.2382 0 0 0.2382 9.4998 1.9033)">
		</image>
		<g>
			<path class="st2" d="M58.2,118.4c5.6,1.8,11.3,2.5,16.8,2.1c1.6,12.3,10,23.1,22.6,27.2c11.9,3.8,24.3,0.6,32.8-7.4     c3.4,3.5,7.7,6.2,12.7,7.8c15,4.9,31-2.1,38-15.7c10.4-2.5,19.3-10.2,22.9-21.1c5.4-16.7-3.8-34.5-20.4-39.9     c-5.2-1.7-10.4-1.9-15.4-1c3.7-15.9-5.3-32.2-21.1-37.3c-15.1-4.9-31.3,2.2-38.1,16c-5.4-7.5-13.2-13.5-22.8-16.6     c-23.9-7.9-49.4,5.2-57.1,28.9S34.5,110.7,58.2,118.4z"/>
		</g>
	</g>
</g>
<g id="Layer_2">
	<path class="st3" d="M88.9,16l-7.2,23.2h68.8L143.2,16c-1.6-5.2-6.5-8.8-12-8.8H101C95.5,7.2,90.6,10.8,88.9,16z"/>
	<path class="st3" d="M120.2,5.8H159c5.5,0,10.5,3.2,12.9,8.1L188,47.2h-77.3V15.4C110.6,10.1,114.9,5.8,120.2,5.8z"/>
	<path class="st4" d="M206.6,80.1H86.2L113,13.8c1.9-4.7,6.5-7.8,11.5-7.8h43.6c5.1,0,9.6,3.1,11.5,7.8L206.6,80.1z"/>
	<path class="st5" d="M6.1,50.2v108c0,8.8,7.4,16,16.5,16h180.2c9.1,0,16.5-7.2,16.5-16v-108c0-8.8-7.4-16-16.5-16H22.6   C13.4,34.2,6,41.4,6.1,50.2z"/>
	<rect x="12.9" y="70.8" class="st6" width="206.4" height="66.9"/>
	<circle class="st7" cx="146.1" cy="104.2" r="46.8"/>
	<line class="st8" x1="50.4" y1="90.1" x2="36.8" y2="90.1"/>
	<circle class="st9" cx="146.1" cy="104.2" r="32.2"/>
	<circle class="st4" cx="137.7" cy="92.9" r="6.1"/>
	<path class="st10" d="M60.4,77.9H31.8c-1.3,0-2.4-1.1-2.4-2.4v-5.3c0-1.3,1.1-2.4,2.4-2.4h28.5c1.3,0,2.4,1.1,2.4,2.4v5.3   C62.7,76.9,61.7,77.9,60.4,77.9z"/>
</g>
</svg>