<?xml version="1.0" encoding="UTF-8"?>
<!-- Generator: Adobe Illustrator 27.0.0, SVG Export Plug-In . SVG Version: 6.00 Build 0)  -->
<svg version="1.1" xmlns="http://www.w3.org/2000/svg" xmlns:xlink="http://www.w3.org/1999/xlink" x="0px" y="0px" viewBox="0 0 238.1 195.2" style="enable-background:new 0 0 238.1 195.2;" xml:space="preserve">
<style type="text/css">
	.st0{display:none;}
	.st1{display:inline;}
	.st2{fill:#FFFFFF;}
	.st3{fill:#1D1D1B;stroke:#727272;stroke-width:13.0898;stroke-miterlimit:10;}
	.st4{fill:#1D1D1B;stroke:#727272;stroke-width:11.1807;stroke-miterlimit:10;}
	.st5{fill:#1D1D1B;stroke:#727272;stroke-width:19;stroke-miterlimit:10;}
	.st6{fill:#1D1D1B;stroke:#727272;stroke-width:12.6958;stroke-miterlimit:10;}
</style>
<g id="Camada_1" class="st0">
	<g class="st1">
		
			<image style="overflow:visible;opacity:0.5;enable-background:new    ;" width="842" height="613" xlink:href="C406B165.png" transform="matrix(0.2377 0 0 0.2377 19.0135 18.8168)">
		</image>
		<g>
			<path class="st2" d="M161.8,53.1c-5.5,0-10.7,1.1-15.6,3c-4.9-10.4-15.5-17.7-27.8-17.7c-11.7,0-21.8,6.5-27,16     c-4.1-2.1-8.7-3.3-13.5-3.3c-14.8,0-27,10.8-29.3,24.9c-8.6,5.2-14.3,14.6-14.3,25.4c0,16.4,13.3,29.7,29.7,29.7     c5.1,0,9.8-1.3,14-3.5c1.3,15.2,14,27.2,29.6,27.2c14.9,0,27.2-11,29.3-25.2c7,5.1,15.7,8.2,25,8.2c23.4,0,42.3-18.9,42.3-42.3     S185.2,53.1,161.8,53.1z"/>
		</g>
	</g>
</g>
<g id="Layer_2">
	<path class="st3" d="M214.1,35.9H167l-7.9-20.1c-2.2-5.6-7.6-9.3-13.6-9.3H91.2c-6.2,0-11.7,3.9-13.8,9.8l-6.8,19.6H24   c-9.6,0-17.5,7.9-17.5,17.5v117.8c0,9.6,7.9,17.5,17.5,17.5h190.1c9.6,0,17.5-7.9,17.5-17.5V53.4C231.7,43.8,223.8,35.9,214.1,35.9   z"/>
	<circle class="st4" cx="119.1" cy="112.3" r="51.1"/>
	<circle class="st5" cx="131.3" cy="96.6" r="9"/>
	<circle class="st6" cx="196.6" cy="65.6" r="6"/>
</g>
</svg>