<?xml version="1.0" encoding="UTF-8"?>
<!-- Generator: Adobe Illustrator 27.0.0, SVG Export Plug-In . SVG Version: 6.00 Build 0)  -->
<svg version="1.1" id="Layer_1" xmlns="http://www.w3.org/2000/svg" xmlns:xlink="http://www.w3.org/1999/xlink" x="0px" y="0px" viewBox="0 0 238.1 295.1" style="enable-background:new 0 0 238.1 295.1;" xml:space="preserve">
<style type="text/css">
	.st0{fill:#1D1D1B;stroke:#727272;stroke-width:13.0898;stroke-miterlimit:10;}
	.st1{fill:#1D1D1B;stroke:#727272;stroke-width:13.84;stroke-miterlimit:10;}
	.st2{fill:#1D1D1B;stroke:#727272;stroke-width:16.435;stroke-miterlimit:10;}
	.st3{fill:#727272;}
	.st4{display:none;fill:#1D1D1B;stroke:#727272;stroke-width:12.6958;stroke-miterlimit:10;}
</style>
<path class="st0" d="M214.1,147.7H167l-7.9-20.1c-2.2-5.6-7.6-9.3-13.6-9.3h-12.9v-9.7h23.8c7.5,0,13.6-6.1,13.6-13.6V20.2  c0-7.5-6.1-13.6-13.6-13.6H81.6C74.1,6.5,68,12.6,68,20.2V95c0,7.5,6.1,13.6,13.6,13.6h23.8v9.7H91.2c-6.2,0-11.7,3.9-13.8,9.8  l-6.8,19.6H24c-9.6,0-17.5,7.9-17.5,17.5V253c0,9.6,7.9,17.5,17.5,17.5h50.2c11.6,11.3,27.5,18.2,44.9,18.2s33.3-6.9,44.9-18.2h50.1  c9.6,0,17.5-7.9,17.5-17.5v-87.8C231.7,155.5,223.8,147.7,214.1,147.7z"/>
<circle class="st1" cx="119.1" cy="224" r="44.2"/>
<circle class="st2" cx="129.7" cy="210.5" r="7.8"/>
<path class="st3" d="M151.9,22.2H86.2c-0.9,0-1.7,0.8-1.7,1.7v42.5c0,0.9,0.8,1.7,1.7,1.7h65.7c0.9,0,1.7-0.8,1.7-1.7V23.9  C153.6,22.9,152.9,22.2,151.9,22.2z"/>
<circle class="st4" cx="196.6" cy="177.3" r="6"/>
<path class="st3" d="M213.7,189h-21c-1.9,0-3.4-1.5-3.4-3.4v-11.9c0-1.9,1.5-3.4,3.4-3.4h21c1.9,0,3.4,1.5,3.4,3.4v11.9  C217.1,187.5,215.6,189,213.7,189z"/>
</svg>