<?xml version="1.0" encoding="UTF-8"?>
<!-- Generator: Adobe Illustrator 27.0.0, SVG Export Plug-In . SVG Version: 6.00 Build 0)  -->
<svg version="1.1" xmlns="http://www.w3.org/2000/svg" xmlns:xlink="http://www.w3.org/1999/xlink" x="0px" y="0px" viewBox="0 0 218.3 180.4" style="enable-background:new 0 0 218.3 180.4;" xml:space="preserve">
<style type="text/css">
	.st0{display:none;}
	.st1{display:inline;fill:#9B9B9B;stroke:#1D1D1B;stroke-width:12;stroke-miterlimit:10;}
	.st2{display:inline;fill:#777777;stroke:#1D1D1B;stroke-width:12;stroke-miterlimit:10;}
	.st3{display:inline;fill:#777777;stroke:#1D1D1B;stroke-width:8;stroke-miterlimit:10;}
	.st4{display:inline;fill:#9B9B9B;stroke:#1D1D1B;stroke-width:10.2498;stroke-miterlimit:10;}
	.st5{display:inline;fill:none;stroke:#1D1D1B;stroke-width:14;stroke-linecap:round;stroke-miterlimit:10;}
	.st6{display:inline;fill:#1D1D1B;}
	.st7{display:inline;fill:#FFFFFF;}
	.st8{display:none;fill:#1D1D1B;stroke:#727272;stroke-width:12;stroke-miterlimit:10;}
	.st9{fill:#1D1D1B;stroke:#727272;stroke-width:12;stroke-miterlimit:10;}
	.st10{fill:none;stroke:#727272;stroke-width:6;stroke-miterlimit:10;}
	.st11{fill:#1D1D1B;stroke:#727272;stroke-width:10.2498;stroke-miterlimit:10;}
	.st12{fill:#1D1D1B;stroke:#727272;stroke-width:14;stroke-linecap:round;stroke-miterlimit:10;}
	.st13{fill:#1D1D1B;stroke:#727272;stroke-width:4;stroke-miterlimit:10;}
</style>
<g id="Layer_3" class="st0">
	<path class="st1" d="M124.3,7.4H94.1c-5.5,0-10.4,3.6-12,8.8l-7.3,23.2h68.8l-7.2-23.2C134.7,11,129.8,7.4,124.3,7.4z"/>
	<path class="st2" d="M196.3,34.4H22c-8.8,0-16,7.2-16,16v108c0,8.8,7.2,16,16,16h174.3c8.8,0,16-7.2,16-16v-108   C212.4,41.6,205.2,34.4,196.3,34.4z"/>
	<rect x="6" y="71" class="st3" width="206.4" height="66.9"/>
	<circle class="st4" cx="109.2" cy="104.4" r="46.8"/>
	<line class="st5" x1="188.5" y1="90.3" x2="174.9" y2="90.3"/>
	<circle class="st6" cx="109.2" cy="104.4" r="32.2"/>
	<circle class="st7" cx="119.6" cy="91.1" r="10.6"/>
</g>
<g id="Layer_2">
	<path class="st8" d="M124.3,7.4H94.1c-5.5,0-10.4,3.6-12,8.8l-7.3,23.2h68.8l-7.2-23.2C134.7,11,129.8,7.4,124.3,7.4z"/>
	<path class="st9" d="M178.2,6h-38.8c-5.5,0-10.5,3.2-12.9,8.1l-16.1,33.2h77.3V15.5C187.7,10.3,183.4,6,178.2,6z"/>
	<path class="st9" d="M196.3,34.4H22c-8.8,0-16,7.2-16,16v108c0,8.8,7.2,16,16,16h174.3c8.8,0,16-7.2,16-16v-108   C212.4,41.6,205.2,34.4,196.3,34.4z"/>
	<rect x="6" y="71" class="st10" width="206.4" height="66.9"/>
	<circle class="st11" cx="109.2" cy="104.4" r="46.8"/>
	<line class="st12" x1="188.5" y1="90.3" x2="174.9" y2="90.3"/>
	<circle class="st13" cx="109.2" cy="104.4" r="32.2"/>
	<circle class="st9" cx="117.6" cy="93.1" r="6.1"/>
</g>
</svg>