<?xml version="1.0" encoding="UTF-8"?>
<svg id="Camada_1" data-name="Camada 1" xmlns="http://www.w3.org/2000/svg" version="1.1" viewBox="0 0 48 48">
  <defs>
    <style>
      .cls-1 {
        fill: #45695e;
      }

      .cls-1, .cls-2 {
        stroke-width: 0px;
      }

      .cls-2 {
        fill: #e5dec8;
      }
    </style>
  </defs>
  <circle class="cls-2" cx="24" cy="24" r="24"/>
  <path class="cls-1" d="M19.96,25.12c-.05,1.2-.07,2.03-.07,2.49,0,1.5.15,2.66.45,3.49.3.83.89,1.42,1.76,1.76.62.14,1.19.21,1.69.21,1.59,0,2.77-.58,3.53-1.73.76-1.15,1.13-2.81,1.11-4.98.25.02.49.03.71.02.22-.01.41-.02.57-.02.21-.02.5-.03.86-.03.44,0,.75.02.93.07.21.78.31,1.56.31,2.32,0,1.38-.3,2.67-.9,3.85-.6,1.19-1.45,2.14-2.54,2.85-1.09.71-2.33,1.09-3.72,1.14-.44.07-.89.1-1.35.1-1.66,0-3.12-.39-4.37-1.18-1.26-.78-1.96-1.96-2.13-3.52-.12-2.3-.17-4.77-.17-7.4,0-1.22.01-2.18.03-2.87l.03-4.18c0-1.43.36-2.7,1.09-3.82.73-1.12,1.71-1.85,2.96-2.19.9-.3,1.82-.45,2.76-.45,1.52,0,2.91.39,4.18,1.16s2.28,1.82,3.02,3.15c.75,1.33,1.12,2.77,1.12,4.34,0,.65-.07,1.3-.21,1.97-.69.12-1.24.17-1.66.17-.46,0-1.01-.07-1.66-.21v-1.11c0-1.24-.13-2.25-.38-3.01-.25-.76-.83-1.37-1.73-1.83-.62-.44-1.56-.66-2.8-.66-.37,0-.66.01-.86.03-.92.05-1.59.71-2,2-.41,1.29-.6,3.39-.55,6.29l-.03,1.76Z"/>
</svg>