<?xml version="1.0" encoding="UTF-8"?>
<svg id="Camada_1" data-name="Camada 1" xmlns="http://www.w3.org/2000/svg" version="1.1" viewBox="0 0 121.97 48">
  <defs>
    <style>
      .cls-1 {
        font-family: Nunito-Bold, Nunito;
        font-size: 16.46px;
        font-weight: 700;
        letter-spacing: .01em;
      }

      .cls-1, .cls-2 {
        fill: #271912;
      }

      .cls-2, .cls-3 {
        stroke-width: 0px;
      }

      .cls-3 {
        fill: #d0b460;
      }
    </style>
  </defs>
  <g>
    <rect class="cls-3" x="1" y="1" width="119.97" height="46" rx="7.42" ry="7.42"/>
    <path class="cls-2" d="M113.55,2c3.54,0,6.42,2.88,6.42,6.42v31.17c0,3.54-2.88,6.42-6.42,6.42H8.42c-3.54,0-6.42-2.88-6.42-6.42V8.42c0-3.54,2.88-6.42,6.42-6.42h105.13M113.55,0H8.42C3.77,0,0,3.77,0,8.42v31.17c0,4.65,3.77,8.42,8.42,8.42h105.13c4.65,0,8.42-3.77,8.42-8.42V8.42c0-4.65-3.77-8.42-8.42-8.42h0Z"/>
  </g>
  <text class="cls-1" transform="translate(24.94 29.55)"><tspan x="0" y="0">ENTENDI</tspan></text>
</svg>