<?xml version="1.0" encoding="UTF-8"?>
<svg id="Camada_1" data-name="Camada 1" xmlns="http://www.w3.org/2000/svg" version="1.1" viewBox="0 0 220.82 49.1">
  <defs>
    <style>
      .cls-1 {
        fill: #271912;
        stroke-width: 0px;
      }
    </style>
  </defs>
  <path class="cls-1" d="M.54,1.15c.28-.04.62-.06,1.02-.06.32,0,.88.04,1.68.12,1.92.12,3.28.2,4.08.24v.24c0,2.6-.04,6.58-.12,11.94-.12,5.32-.18,10.7-.18,16.14,0,5.08.08,9.64.24,13.68-.32.24-1.12.36-2.4.36l-3.3-.06c-.52,0-1.02.04-1.5.12.16-3.04.24-6.66.24-10.86,0-2.56-.02-4.5-.06-5.82L.06,16.93l-.06-5.34C0,8.07.18,4.63.54,1.27v-.12Z"/>
  <path class="cls-1" d="M33.48,40.22c0,.48.03,1.3.1,2.45v.96h-4.08c-.38-.77-.79-1.57-1.22-2.4-.43-.83-.86-1.65-1.27-2.45-.38-.74-1.41-2.73-3.07-5.98-1.66-3.25-3.2-6.36-4.61-9.34-.16-.35-.32-.72-.48-1.1-.16-.38-.27-.61-.34-.67-.06-.06-.11,0-.14.19v1.39c0,.9,0,2.51.02,4.85.02,2.34.02,6,.02,10.99v1.25c0,1.57.02,2.66.05,3.26-.54.13-1.09.18-1.63.14-.35,0-.85-.03-1.49-.1-.77-.06-1.33-.1-1.68-.1v-3.36c0-2.05-.03-4.96-.1-8.74l-.05-8.59c0-5.09.14-9.38.43-12.86.38-.06.7-.1.96-.1l.82.05c1.63.1,2.45.21,2.45.34.38.93.82,1.87,1.3,2.83s1.06,2.08,1.73,3.36c1.57,2.85,3.22,6.14,4.94,9.86,1.73,3.73,2.78,6.12,3.17,7.18.03-1.28-.02-3.38-.14-6.29l-.1-3.22c-.06-3.55-.13-6.1-.19-7.63l-.05-2.59v-4.08c.77-.1,1.57-.14,2.4-.14,1.02.06,1.79.14,2.3.24v15.46c.03,1.79.05,4.53.05,8.21l-.05,5.33c-.03.32-.05.78-.05,1.39Z"/>
  <path class="cls-1" d="M57.77,20.88h-.05c-.96.16-1.86.24-2.69.24-.9,0-1.62-.08-2.16-.24.06-.29.1-.7.1-1.25,0-1.06-.26-1.94-.77-2.66-.51-.72-1.22-1.24-2.11-1.56-.64-.22-1.34-.34-2.11-.34-1.12,0-2.19.25-3.22.74-1.02.5-1.82,1.18-2.4,2.04-.58.86-.82,1.82-.72,2.88.42,2.43,2.1,3.7,5.04,3.79,3.68.13,6.45.98,8.3,2.54,1.86,1.57,2.78,3.57,2.78,6,0,2.3-.44,4.27-1.32,5.9-.88,1.63-2.07,2.86-3.58,3.67-1.5.82-3.17,1.22-4.99,1.22s-3.6-.33-5.33-.98c-1.73-.66-3.17-1.62-4.32-2.9-1.15-1.28-1.81-2.8-1.97-4.56v-.05c-.1-.38-.14-.82-.14-1.3v-.34c.7-.06,1.25-.1,1.63-.1l1.78.05c.35.03.85.05,1.49.05-.03,1.28.36,2.37,1.18,3.26.82.9,2.06,1.55,3.72,1.97.48.13.98.19,1.49.19,1.06,0,2.02-.26,2.88-.77.86-.51,1.52-1.22,1.97-2.11.45-.9.62-1.89.53-2.98-.13-1.22-.54-2.13-1.22-2.74-.69-.61-1.49-1.01-2.4-1.2-.91-.19-2.17-.35-3.77-.48l-1.82-.14c-1.63-.26-3.02-.89-4.18-1.9-1.15-1.01-1.94-2.18-2.35-3.53-.29-.96-.43-1.9-.43-2.83,0-1.02.14-1.98.43-2.88.45-1.5,1.19-2.86,2.23-4.06,1.04-1.2,2.28-2.1,3.72-2.71,1.25-.51,2.7-.77,4.37-.77,2.27,0,4.37.43,6.29,1.3,1.34.67,2.41,1.62,3.19,2.86.78,1.23,1.18,2.7,1.18,4.39,0,.61-.08,1.36-.24,2.26Z"/>
  <path class="cls-1" d="M59.3,9.84c1.89,0,3.3-.02,4.22-.05l4.46-.05c4.67,0,8.53.18,11.57.53.03.29.05.78.05,1.49,0,1.09-.08,2.24-.24,3.46-.7-.13-1.7-.18-2.98-.14-1.02.06-2.05.1-3.07.1h-1.25c.06.19.06.38,0,.58-.03.19-.05,2.35-.05,6.48,0,.99.02,1.81.05,2.45.1,8.45.19,14.64.29,18.58v.1c-.58.1-1.46.14-2.64.14-1.25,0-2.19.06-2.83.19-.03-.13-.04-.34-.02-.65.02-.3.02-.65.02-1.03v-2.93c.03-.64.05-1.79.05-3.46,0-1.89-.02-3.41-.05-4.56-.06-4.58-.18-9.73-.34-15.46v-.19c-.67-.19-2.45-.32-5.33-.38-1.02,0-1.58-.02-1.68-.05-.1-.19-.16-.8-.19-1.82-.03-1.02-.05-2.13-.05-3.31Z"/>
  <path class="cls-1" d="M104.9,43.49l-2.4.05c-1.44.06-2.48.08-3.12.05-.64-.77-1.33-1.65-2.06-2.64-1.79-2.24-3.21-3.98-4.25-5.23-1.04-1.25-2.15-2.43-3.34-3.55l-2.3-1.87c-.06,1.09-.1,2.14-.1,3.17v1.63c0,2.78.11,5.52.34,8.21-.8.26-1.84.38-3.12.38-.58,0-1.09-.02-1.54-.05-.45-.03-.78-.03-1.01,0,.13-.03.19-2.86.19-8.5,0-5.18-.05-10.41-.14-15.67-.1-5.26-.22-8.39-.38-9.38,2.08-.29,3.75-.5,5.02-.65,1.26-.14,2.63-.22,4.1-.22,1.28,0,2.45.06,3.5.19,1.86.1,3.54.63,5.06,1.61,1.52.98,2.71,2.24,3.58,3.79.86,1.55,1.3,3.19,1.3,4.92s-.48,3.41-1.44,5.04c-.54,1.02-1.14,1.82-1.8,2.38-.66.56-1.66.98-3.02,1.27-1.36.29-3.27.42-5.74.38l3.02,3.41c1.63,1.79,3.06,3.41,4.3,4.85,1.23,1.44,3,3.58,5.3,6.43h.05ZM92.37,24.62c1.41,0,2.51-.06,3.31-.19,2.24-.38,3.36-2.06,3.36-5.04,0-1.89-.68-3.33-2.04-4.32-1.36-.99-3.13-1.49-5.3-1.49-1.5,0-3.31.19-5.42.58.22,1.12.34,2.8.34,5.04l-.05,3.26c0,.83.03,1.47.1,1.92h.05c2.4.16,4.29.24,5.66.24Z"/>
  <path class="cls-1" d="M122.76,11.42c1.44-.16,2.42-.24,2.93-.24.77,0,1.36.11,1.78.34.16,3.42.24,6.51.24,9.26,0,5.5-.27,10.7-.82,15.6-.29,2.18-1.12,3.98-2.5,5.42-1.38,1.44-3.17,2.27-5.38,2.5-.35.03-.86.05-1.54.05-2.88,0-5.34-.7-7.37-2.09-2.03-1.39-3.11-3.45-3.24-6.17-.03-1.22-.05-3.07-.05-5.57s.02-4.5.05-5.81c.06-3.58.1-6.26.1-8.02l-.05-5.66-.05-.05h.05l2.35-.05c.93,0,1.7.06,2.3.19-.03.61-.05,1.47-.05,2.59l-.05,1.92c-.1,3.07-.14,5.76-.14,8.06,0,3.33.13,6.05.38,8.16.26,2.11.72,4.05,1.39,5.81.51.8,1.23,1.34,2.16,1.63.64.16,1.2.24,1.68.24.83,0,1.6-.17,2.3-.5.7-.34,1.25-.84,1.63-1.51.74-1.7,1.23-3.78,1.49-6.26.26-2.48.38-5.45.38-8.9l-.05-7.39c0-1.6.02-2.78.05-3.55Z"/>
  <path class="cls-1" d="M130.82,18.96c.1-1.15.21-1.95.34-2.4.22-1.76.8-3.26,1.73-4.51.93-1.25,2.21-1.97,3.84-2.16.35-.1.93-.18,1.73-.24.35-.03.88-.05,1.58-.05,3.26,0,5.94.96,8.02,2.88,1.15,1.09,2.01,2.36,2.57,3.82.56,1.46.84,3.02.84,4.68,0,1.09-.08,2.02-.24,2.78-.42.1-.74.14-.96.14-.45.1-.86.14-1.25.14s-1.02-.06-1.92-.19c-.22,0-.4-.94-.53-2.83-.06-.99-.13-1.63-.19-1.92-.16-1.22-.72-2.31-1.68-3.29-.96-.98-2.54-1.46-4.75-1.46-1.79,0-3.03.9-3.72,2.71-.69,1.81-1.03,4.36-1.03,7.66l.05,1.92v1.54c0,2.72.17,4.88.5,6.48.34,1.6.94,2.79,1.82,3.58.88.78,2.12,1.19,3.72,1.22.9-.03,1.74-.26,2.52-.67.78-.42,1.43-1.02,1.94-1.82.77-1.15,1.15-2.85,1.15-5.09,0-.67-.02-1.2-.05-1.58.96-.06,1.84-.1,2.64-.1.74,0,1.25.03,1.54.1.22.99.34,2.03.34,3.12,0,1.89-.38,3.65-1.13,5.28-.75,1.63-1.86,2.94-3.31,3.94-1.46.99-3.18,1.49-5.16,1.49v-.05c-.32,1.57-.74,3.22-1.25,4.94v.05l-.62-.05c-.35,0-.69.02-1.01.05s-.64.05-.96.05-.56-.02-.72-.05c-.03,0-.05-.03-.05-.1.19-.8.34-1.39.43-1.78.42-1.63.66-2.67.72-3.12v-.05c-1.95.06-3.46-.31-4.54-1.13-1.07-.82-1.82-1.94-2.23-3.38-.42-1.44-.66-3.23-.72-5.38v-.24c-.06-2.75-.1-4.99-.1-6.72,0-1.31.03-3.73.1-7.25v-.96Z"/>
  <path class="cls-1" d="M157.17,11.33c1.92-.93,4.1-1.39,6.53-1.39,2.18,0,4.12.42,5.83,1.27,1.71.85,2.87,2.15,3.48,3.91.61,1.28.91,3.1.91,5.47,0,1.02-.02,1.78-.05,2.26-.06,1.12-.1,2.77-.1,4.94,0,.54,0,1.22-.02,2.04-.02.82-.06,1.77-.12,2.86l-.14,1.58c-.22,2.72-.83,4.88-1.82,6.48-.86,1.15-2.14,2.02-3.82,2.59-1.68.58-3.45.86-5.3.86-.58,0-1.01-.02-1.3-.05-2.46-.22-4.31-.98-5.54-2.26-1.23-1.28-1.88-3.42-1.94-6.43l-.14-3.02c-.03-.64-.08-1.75-.14-3.34-.06-1.58-.1-3.03-.1-4.34,0-1.47.05-2.93.14-4.37.03-1.92.32-3.73.86-5.42.54-1.7,1.47-2.91,2.78-3.65ZM157.7,7.87v.05c-.7-.06-1.42-.1-2.16-.1s-1.28.02-1.73.05c.26-.93.66-2.05,1.22-3.36.56-1.31,1.11-2.26,1.66-2.83.54-.54,1.16-.96,1.85-1.25.69-.29,1.38-.43,2.09-.43.96,0,1.81.26,2.54.77.26.16.52.46.79.89.27.43.46.73.55.89.45.8.87,1.42,1.27,1.87.4.45.87.67,1.42.67.1,0,.27-.03.53-.1.93-.29,1.58-.86,1.97-1.73.38-.86.56-1.79.53-2.78.64-.06,1.6-.1,2.88-.1v.05h.05c.06.45.1.82.1,1.1,0,1.44-.4,2.81-1.2,4.1-.8,1.3-1.79,2.09-2.98,2.38-.48.13-1.01.19-1.58.19-1.98,0-3.3-1.04-3.94-3.12-.32-.7-.66-1.2-1.01-1.49-.35-.29-.77-.43-1.25-.43-1.12,0-2.01.44-2.66,1.32-.66.88-.97,2.01-.94,3.38ZM169.75,26.88l-.05-3.89c-.13-2.24-.23-3.73-.31-4.46-.08-.74-.56-1.66-1.44-2.76-.88-1.1-2.3-1.66-4.25-1.66-2.46,0-4.18,1.07-5.16,3.22-.98,2.14-1.46,5.41-1.46,9.79,0,2.72.06,4.82.17,6.31.11,1.49.34,2.69.7,3.6.35.91.9,1.62,1.63,2.14.83.54,1.95.82,3.36.82,2.27,0,3.91-.46,4.92-1.39,1.01-.93,1.56-2.3,1.66-4.13,0-.96.03-2.09.1-3.38.06-1.3.11-2.14.14-2.52v-1.68Z"/>
  <path class="cls-1" d="M197.35,39.41v.1c.06,1.7-.02,3.02-.24,3.98-1.54-.03-3.89-.02-7.06.05-2.5.06-4.38.1-5.66.1-2.75,0-5.07-.08-6.96-.24,0-3.62-.05-7.2-.14-10.75-.06-4.74-.1-8.26-.1-10.56,0-4.61.1-8.45.29-11.52,5.92-.29,11.38-.43,16.37-.43,2.34,0,3.5.05,3.5.14.03.22.05.58.05,1.06,0,.64-.02,1.1-.05,1.39l-.05,1.44v.48c-2.3.16-4.34.24-6.1.24h-4.18c-1.86,0-3.44.05-4.75.14l-.19.05c.06.8.02,2.26-.14,4.37-.06,1.6-.1,2.61-.1,3.02,0,.99.06,1.73.19,2.21l.05.05c1.54.03,3.17.05,4.9.05,1.47,0,2.67.03,3.6.1v.05c.06.48.1,1.15.1,2.02,0,.29,0,.62-.02.98-.02.37,0,.76.02,1.18-.74.06-1.33.11-1.78.14-.45.03-.96.05-1.54.05-.96,0-1.86.02-2.69.05-1.44.06-2.24.14-2.4.24-.13.74-.19,1.78-.19,3.12,0,.9.02,1.58.05,2.06,0,.42,0,1.06.02,1.94.02.88,0,1.69-.02,2.42l.05.05c2.3-.03,5.25.03,8.83.19,2.05.06,3.52.1,4.42.1l1.92-.05Z"/>
  <path class="cls-1" d="M220.58,20.88h-.05c-.96.16-1.86.24-2.69.24-.9,0-1.62-.08-2.16-.24.06-.29.1-.7.1-1.25,0-1.06-.26-1.94-.77-2.66-.51-.72-1.22-1.24-2.11-1.56-.64-.22-1.34-.34-2.11-.34-1.12,0-2.19.25-3.22.74-1.02.5-1.82,1.18-2.4,2.04-.58.86-.82,1.82-.72,2.88.42,2.43,2.1,3.7,5.04,3.79,3.68.13,6.45.98,8.3,2.54,1.86,1.57,2.78,3.57,2.78,6,0,2.3-.44,4.27-1.32,5.9-.88,1.63-2.07,2.86-3.58,3.67-1.5.82-3.17,1.22-4.99,1.22s-3.6-.33-5.33-.98c-1.73-.66-3.17-1.62-4.32-2.9-1.15-1.28-1.81-2.8-1.97-4.56v-.05c-.1-.38-.14-.82-.14-1.3v-.34c.7-.06,1.25-.1,1.63-.1l1.78.05c.35.03.85.05,1.49.05-.03,1.28.36,2.37,1.18,3.26.82.9,2.06,1.55,3.72,1.97.48.13.98.19,1.49.19,1.06,0,2.02-.26,2.88-.77.86-.51,1.52-1.22,1.97-2.11.45-.9.62-1.89.53-2.98-.13-1.22-.54-2.13-1.22-2.74-.69-.61-1.49-1.01-2.4-1.2-.91-.19-2.17-.35-3.77-.48l-1.82-.14c-1.63-.26-3.02-.89-4.18-1.9-1.15-1.01-1.94-2.18-2.35-3.53-.29-.96-.43-1.9-.43-2.83,0-1.02.14-1.98.43-2.88.45-1.5,1.19-2.86,2.23-4.06,1.04-1.2,2.28-2.1,3.72-2.71,1.25-.51,2.7-.77,4.37-.77,2.27,0,4.37.43,6.29,1.3,1.34.67,2.41,1.62,3.19,2.86.78,1.23,1.18,2.7,1.18,4.39,0,.61-.08,1.36-.24,2.26Z"/>
</svg>