<?xml version="1.0" encoding="UTF-8"?>
<svg id="Camada_1" data-name="Camada 1" xmlns="http://www.w3.org/2000/svg" version="1.1" viewBox="0 0 277.53 103.96">
  <defs>
    <style>
      .cls-1 {
        fill: #e5dec8;
      }

      .cls-1, .cls-2 {
        stroke-width: 0px;
      }

      .cls-2 {
        fill: #271912;
      }
    </style>
  </defs>
  <g>
    <g>
      <path class="cls-1" d="M63.62,21.58c1.82-.88,3.88-1.32,6.18-1.32,2.06,0,3.9.4,5.52,1.2,1.62.8,2.72,2.04,3.29,3.7.57,1.27.86,3,.86,5.18,0,.97-.02,1.68-.05,2.13-.06,1.06-.09,2.62-.09,4.68,0,.52,0,1.16-.02,1.93-.02.77-.05,1.67-.11,2.7l-.14,1.5c-.21,2.57-.79,4.62-1.73,6.13-.79,1.09-1.96,1.91-3.52,2.45-1.56.54-3.2.82-4.93.82-.64,0-1.11-.02-1.41-.05-2.3-.18-4.04-.89-5.22-2.11-1.18-1.23-1.8-3.26-1.86-6.11l-.14-2.86c-.03-.61-.08-1.66-.14-3.16-.06-1.5-.09-2.87-.09-4.11,0-1.39.05-2.77.14-4.13.03-1.82.3-3.53.82-5.13.51-1.6,1.39-2.76,2.63-3.45ZM75.52,36.3l-.05-3.63c-.12-2.06-.23-3.46-.32-4.2-.09-.74-.55-1.63-1.36-2.66-.82-1.03-2.17-1.54-4.04-1.54-2.3,0-3.91,1.01-4.84,3.04-.92,2.03-1.39,5.12-1.39,9.27,0,2.54.05,4.52.16,5.93.11,1.41.32,2.54.66,3.41.33.86.85,1.54,1.54,2.02.73.52,1.77.77,3.13.77,2.15,0,3.71-.44,4.68-1.32.97-.88,1.5-2.16,1.59-3.86,0-.91.03-1.98.09-3.23.06-1.24.11-2.04.14-2.41v-1.59Z"/>
      <path class="cls-1" d="M96.47,35.92h-.03c-.68.11-1.32.17-1.91.17-.64,0-1.15-.06-1.53-.17.05-.2.07-.5.07-.89,0-.75-.18-1.38-.54-1.89-.36-.51-.86-.88-1.5-1.11-.45-.16-.95-.24-1.5-.24-.8,0-1.56.18-2.28.53-.73.35-1.29.83-1.7,1.45-.41.61-.58,1.29-.51,2.04.3,1.73,1.49,2.62,3.58,2.69,2.61.09,4.58.69,5.89,1.81,1.32,1.11,1.98,2.53,1.98,4.26,0,1.64-.31,3.03-.94,4.19-.63,1.16-1.47,2.03-2.54,2.61-1.07.58-2.25.87-3.54.87s-2.56-.23-3.78-.7c-1.23-.47-2.25-1.15-3.07-2.06-.82-.91-1.28-1.99-1.4-3.24v-.03c-.07-.27-.1-.58-.1-.92v-.24c.5-.05.89-.07,1.16-.07l1.26.03c.25.02.6.03,1.06.03-.02.91.26,1.68.83,2.32.58.64,1.46,1.1,2.64,1.4.34.09.69.14,1.06.14.75,0,1.43-.18,2.04-.54.61-.36,1.08-.86,1.4-1.5.32-.64.44-1.34.37-2.11-.09-.86-.38-1.51-.87-1.94-.49-.43-1.06-.72-1.7-.85s-1.54-.25-2.67-.34l-1.29-.1c-1.16-.18-2.15-.63-2.96-1.35-.82-.72-1.37-1.55-1.67-2.5-.2-.68-.31-1.35-.31-2.01,0-.73.1-1.41.31-2.04.32-1.07.85-2.03,1.58-2.88.74-.85,1.62-1.49,2.64-1.92.89-.36,1.92-.55,3.1-.55,1.61,0,3.1.31,4.46.92.95.48,1.71,1.15,2.27,2.03.56.87.83,1.91.83,3.12,0,.43-.06.97-.17,1.6Z"/>
    </g>
    <g>
      <path class="cls-1" d="M97.16,5.94c2.68,0,4.68-.02,6-.07l6.34-.07c6.63,0,12.11.25,16.42.75.04.41.07,1.11.07,2.11,0,1.54-.11,3.18-.34,4.91-1-.18-2.41-.25-4.22-.2-1.45.09-2.91.14-4.36.14h-1.77c.09.27.09.54,0,.82-.05.27-.07,3.34-.07,9.2,0,1.41.02,2.57.07,3.47.14,11.99.27,20.78.41,26.37v.14c-.82.14-2.07.2-3.75.2-1.77,0-3.11.09-4.02.27-.05-.18-.06-.49-.03-.92.02-.43.03-.92.03-1.47v-4.16c.04-.91.07-2.54.07-4.91,0-2.68-.02-4.84-.07-6.47-.09-6.5-.25-13.81-.48-21.94v-.27c-.95-.27-3.47-.45-7.56-.55-1.45,0-2.25-.02-2.38-.07-.14-.27-.23-1.13-.27-2.59-.05-1.45-.07-3.02-.07-4.7Z"/>
      <path class="cls-1" d="M156.02,53.73l-2.84.06c-1.7.08-2.93.1-3.69.06-.76-.91-1.57-1.95-2.44-3.12-2.12-2.65-3.8-4.71-5.03-6.19-1.23-1.48-2.55-2.88-3.95-4.2l-2.73-2.21c-.08,1.29-.11,2.54-.11,3.75v1.93c0,3.29.13,6.53.4,9.71-.95.3-2.18.45-3.69.45-.68,0-1.29-.02-1.82-.06-.53-.04-.93-.04-1.19,0,.15-.04.23-3.39.23-10.05,0-6.13-.06-12.31-.17-18.54-.11-6.23-.27-9.93-.45-11.1,2.46-.34,4.44-.6,5.93-.77,1.49-.17,3.11-.26,4.85-.26,1.51,0,2.9.08,4.14.23,2.2.11,4.19.75,5.99,1.9,1.8,1.16,3.21,2.65,4.23,4.49,1.02,1.84,1.53,3.78,1.53,5.82s-.57,4.03-1.7,5.96c-.64,1.21-1.35,2.15-2.13,2.81-.78.66-1.97,1.16-3.58,1.5-1.61.34-3.87.49-6.79.45l3.58,4.03c1.93,2.12,3.62,4.03,5.08,5.73,1.46,1.7,3.55,4.24,6.27,7.61h.06ZM141.2,31.42c1.67,0,2.97-.08,3.92-.23,2.65-.45,3.97-2.44,3.97-5.96,0-2.23-.8-3.94-2.41-5.11-1.61-1.17-3.7-1.76-6.27-1.76-1.78,0-3.92.23-6.42.68.26,1.33.4,3.31.4,5.96l-.06,3.86c0,.98.04,1.74.11,2.27h.06c2.84.19,5.07.28,6.7.28Z"/>
      <path class="cls-1" d="M182.19,48.91v.11c.08,2.01-.02,3.58-.28,4.71-1.82-.04-4.6-.02-8.35.06-2.95.08-5.19.11-6.7.11-3.26,0-6-.09-8.23-.28,0-4.28-.06-8.52-.17-12.72-.08-5.6-.11-9.77-.11-12.49,0-5.45.11-9.99.34-13.63,7-.34,13.46-.51,19.36-.51,2.76,0,4.14.06,4.14.17.04.27.06.68.06,1.25,0,.76-.02,1.31-.06,1.65l-.06,1.7v.57c-2.73.19-5.13.28-7.21.28h-4.94c-2.2,0-4.07.06-5.62.17l-.23.06c.08.95.02,2.67-.17,5.17-.08,1.89-.11,3.09-.11,3.58,0,1.17.08,2.04.23,2.61l.06.06c1.82.04,3.75.06,5.79.06,1.74,0,3.16.04,4.26.11v.06c.08.57.11,1.36.11,2.38,0,.34,0,.73-.03,1.16-.02.44,0,.9.03,1.39-.87.08-1.57.13-2.1.17-.53.04-1.14.06-1.82.06-1.14,0-2.2.02-3.18.06-1.7.08-2.65.17-2.84.28-.15.87-.23,2.1-.23,3.69,0,1.06.02,1.87.06,2.44,0,.49,0,1.26.03,2.3.02,1.04,0,2-.03,2.87l.06.06c2.73-.04,6.21.04,10.45.23,2.42.08,4.16.11,5.22.11l2.27-.06ZM170.32,1.89l9.2,9.14s-.53,0-1.48.14c-.95.13-1.97.18-3.07.14-.15,0-.78-.55-1.87-1.65l-1.31-1.25c-.61-.79-1.1-1.31-1.48-1.53-.08.04-.47.45-1.19,1.25-1.59,1.89-2.67,2.92-3.24,3.07-.23.04-.53.06-.91.06l-3.8-.17c1.1-1.36,2.16-2.55,3.18-3.58,1.02-1.02,2.31-2.25,3.86-3.69l2.1-1.93Z"/>
      <path class="cls-1" d="M209.67,26.99h-.06c-1.14.19-2.2.28-3.18.28-1.06,0-1.91-.09-2.55-.28.08-.34.11-.83.11-1.48,0-1.25-.3-2.3-.91-3.15-.61-.85-1.44-1.47-2.5-1.85-.76-.26-1.59-.4-2.5-.4-1.33,0-2.59.29-3.8.88-1.21.59-2.16,1.39-2.84,2.41-.68,1.02-.97,2.16-.85,3.41.49,2.88,2.48,4.37,5.96,4.49,4.35.15,7.63,1.16,9.82,3.01,2.19,1.86,3.29,4.22,3.29,7.1,0,2.73-.52,5.05-1.56,6.98-1.04,1.93-2.45,3.38-4.23,4.34-1.78.97-3.75,1.45-5.91,1.45s-4.26-.39-6.3-1.16c-2.04-.78-3.75-1.92-5.11-3.44-1.36-1.51-2.14-3.31-2.33-5.39v-.06c-.11-.45-.17-.97-.17-1.53v-.4c.83-.08,1.48-.11,1.93-.11l2.1.06c.42.04,1,.06,1.76.06-.04,1.51.43,2.8,1.39,3.86.97,1.06,2.43,1.84,4.4,2.33.57.15,1.15.23,1.76.23,1.25,0,2.38-.3,3.41-.91,1.02-.6,1.8-1.44,2.33-2.5.53-1.06.74-2.23.62-3.52-.15-1.44-.63-2.52-1.45-3.24-.81-.72-1.76-1.19-2.84-1.42-1.08-.23-2.56-.42-4.46-.57l-2.16-.17c-1.93-.3-3.58-1.05-4.94-2.24-1.36-1.19-2.29-2.58-2.78-4.17-.34-1.14-.51-2.25-.51-3.35,0-1.21.17-2.35.51-3.41.53-1.78,1.41-3.38,2.64-4.8,1.23-1.42,2.7-2.49,4.4-3.21,1.48-.6,3.2-.91,5.17-.91,2.69,0,5.17.51,7.44,1.53,1.59.79,2.85,1.92,3.78,3.38.93,1.46,1.39,3.19,1.39,5.2,0,.72-.1,1.61-.28,2.67Z"/>
    </g>
    <g>
      <path class="cls-1" d="M32.35,69.66v.89c-.32,4.82-2.19,8.48-5.62,11-3.43,2.52-8.21,3.78-14.34,3.78-1.27,0-2.23-.02-2.86-.07.04.41.07,1.02.07,1.84v2.73c0,1.73.07,5.91.2,12.54v.07l-.2.07c-1.09.27-2.43.41-4.02.41-1.09,0-2.16-.07-3.2-.2-.14-3.04-.2-8.13-.2-15.26v-13.49c0-7.04-.09-13.1-.27-18.19,3.09-.86,6.4-1.29,9.95-1.29,5.54,0,10.28,1.22,14.21,3.65,3.93,2.43,6.03,6.28,6.3,11.55ZM25.67,68.02c-.64-2.27-1.59-3.82-2.86-4.63-1.27-.86-2.54-1.48-3.82-1.84-1.27-.36-2.91-.55-4.91-.55-2.59,0-4.5.16-5.72.48.04.5.07,1.16.07,1.98v7.02c.09,4.41.23,7.27.41,8.58,2.77,0,5.33-.14,7.67-.41,2.34-.27,4.52-1.01,6.54-2.21,2.02-1.2,3.03-3.05,3.03-5.55,0-.91-.14-1.86-.41-2.86Z"/>
      <path class="cls-1" d="M39.31,65.01c2.27-1.1,4.84-1.65,7.72-1.65,2.57,0,4.87.5,6.9,1.5,2.02,1,3.4,2.55,4.12,4.63.72,1.59,1.08,3.75,1.08,6.47,0,1.21-.02,2.1-.06,2.67-.08,1.33-.11,3.27-.11,5.85,0,.64,0,1.45-.03,2.41-.02.97-.07,2.09-.14,3.38l-.17,1.87c-.27,3.22-.98,5.77-2.16,7.67-.98,1.36-2.45,2.38-4.4,3.07-1.95.68-4,1.02-6.16,1.02-.79,0-1.38-.02-1.76-.06-2.88-.23-5.05-1.11-6.53-2.64-1.48-1.53-2.25-4.08-2.33-7.64l-.17-3.58c-.04-.76-.09-2.07-.17-3.95-.08-1.87-.11-3.59-.11-5.14,0-1.74.06-3.46.17-5.17.04-2.27.38-4.41,1.02-6.42.64-2.01,1.74-3.44,3.29-4.31ZM54.19,83.41l-.06-4.54c-.15-2.57-.28-4.32-.4-5.25-.11-.93-.68-2.03-1.7-3.32-1.02-1.29-2.71-1.93-5.05-1.93-2.88,0-4.89,1.27-6.05,3.8-1.16,2.54-1.73,6.4-1.73,11.58,0,3.18.07,5.65.2,7.41.13,1.76.41,3.18.82,4.26.42,1.08,1.06,1.92,1.93,2.53.91.64,2.21.97,3.92.97,2.69,0,4.64-.55,5.85-1.65,1.21-1.1,1.87-2.71,1.99-4.83,0-1.14.04-2.48.11-4.03.08-1.55.13-2.56.17-3.01v-1.99Z"/>
      <path class="cls-1" d="M90.01,102.94l-2.84.06c-1.7.08-2.93.1-3.69.06-.76-.91-1.57-1.95-2.44-3.12-2.12-2.65-3.8-4.71-5.03-6.19-1.23-1.48-2.55-2.88-3.95-4.2l-2.73-2.21c-.08,1.29-.11,2.54-.11,3.75v1.93c0,3.29.13,6.53.4,9.71-.95.3-2.18.45-3.69.45-.68,0-1.29-.02-1.82-.06-.53-.04-.93-.04-1.19,0,.15-.04.23-3.39.23-10.05,0-6.13-.06-12.31-.17-18.54-.11-6.23-.27-9.93-.45-11.1,2.46-.34,4.44-.6,5.93-.77,1.49-.17,3.11-.26,4.85-.26,1.51,0,2.9.08,4.14.23,2.2.11,4.19.75,5.99,1.9,1.8,1.16,3.21,2.65,4.23,4.49,1.02,1.84,1.53,3.78,1.53,5.82s-.57,4.03-1.7,5.96c-.64,1.21-1.35,2.15-2.13,2.81-.78.66-1.97,1.16-3.58,1.5-1.61.34-3.87.49-6.79.45l3.58,4.03c1.93,2.12,3.62,4.03,5.08,5.73,1.46,1.7,3.55,4.24,6.27,7.61h.06ZM75.19,80.63c1.67,0,2.97-.08,3.92-.23,2.65-.45,3.97-2.44,3.97-5.96,0-2.23-.8-3.94-2.41-5.11-1.61-1.17-3.7-1.76-6.27-1.76-1.78,0-3.92.23-6.42.68.26,1.33.4,3.31.4,5.96l-.06,3.86c0,.98.04,1.74.11,2.27h.06c2.84.19,5.07.28,6.7.28Z"/>
      <path class="cls-1" d="M116.47,88.12l-.11,1.87c-.08,1.7-.21,2.95-.4,3.75-.11.83-.35,1.65-.71,2.44-.36.79-1.11,1.89-2.24,3.29.72.87,1.15,1.44,1.31,1.7.04.3-.07.59-.31.85-.25.27-.69.61-1.33,1.02-.15.11-.33.25-.54.4-.21.15-.37.23-.48.23-.23,0-.47-.15-.74-.45-.15-.15-.41-.39-.77-.71-.36-.32-.62-.58-.77-.77-.45.53-1.31.97-2.55,1.31-1.25.34-2.46.47-3.63.4-1.82-.15-3.32-.48-4.51-.99-1.19-.51-2.36-1.32-3.49-2.41-1.4-1.36-2.32-2.94-2.75-4.74-.44-1.8-.65-4.06-.65-6.79v-7.44c0-2.69.09-5.09.26-7.21.17-2.12.5-4.07.99-5.85.53-1.59,1.85-2.9,3.95-3.92,2.1-1.02,4.59-1.53,7.47-1.53,2.04,0,3.64.12,4.8.37,1.15.25,2.19.81,3.12,1.7.93.89,1.81,2.32,2.64,4.29,1.1,3.45,1.65,7.87,1.65,13.29,0,2.42-.06,4.39-.17,5.91ZM106.03,94.03c.15-.11.36-.28.62-.51.26-.23.53-.36.79-.4.57.34,1.06.85,1.48,1.53.3.45.59.81.85,1.08.64-1.21,1.14-2.34,1.5-3.38.36-1.04.6-2.43.71-4.17.04-.87.06-2.1.06-3.69,0-3.86-.3-7.53-.91-11.01-.3-1.4-.65-2.47-1.05-3.21-.4-.74-1.02-1.29-1.87-1.65-.85-.36-2.07-.54-3.66-.54-2.38.04-4.1.29-5.14.77-1.04.47-1.71,1.28-2.02,2.41-.3,1.14-.55,3.05-.74,5.73-.15,1.7-.23,3.69-.23,5.96v1.65c0,.49-.02.87-.06,1.14,0,.23,0,.6-.03,1.11-.02.51,0,.97.03,1.39.08,2.16.28,3.97.62,5.42.34,1.46,1.09,2.71,2.24,3.75,1.15,1.04,2.9,1.56,5.25,1.56.57,0,1.08-.08,1.53-.23.45-.15.7-.32.74-.51-.08-.08-.43-.48-1.05-1.22-.62-.74-.96-1.31-.99-1.73.04-.3.23-.56.57-.77.34-.21.59-.37.74-.48Z"/>
      <path class="cls-1" d="M139.24,65.01c1.7-.19,2.86-.28,3.46-.28.91,0,1.61.13,2.1.4.19,4.05.28,7.7.28,10.96,0,6.51-.32,12.66-.97,18.45-.34,2.57-1.33,4.71-2.95,6.42-1.63,1.7-3.75,2.69-6.36,2.95-.42.04-1.02.06-1.82.06-3.41,0-6.31-.82-8.72-2.47-2.4-1.65-3.68-4.08-3.83-7.3-.04-1.44-.06-3.63-.06-6.59s.02-5.32.06-6.87c.08-4.24.11-7.4.11-9.48l-.06-6.7-.06-.06h.06l2.78-.06c1.1,0,2.01.08,2.73.23-.04.72-.06,1.74-.06,3.07l-.06,2.27c-.11,3.63-.17,6.81-.17,9.54,0,3.94.15,7.15.45,9.65.3,2.5.85,4.79,1.65,6.87.6.95,1.46,1.59,2.55,1.93.76.19,1.42.28,1.99.28.98,0,1.89-.2,2.73-.6.83-.4,1.48-.99,1.93-1.79.87-2.01,1.46-4.48,1.76-7.41.3-2.93.45-6.44.45-10.53l-.06-8.74c0-1.89.02-3.29.06-4.2Z"/>
      <path class="cls-1" d="M151.11,62.91c.26-.04.59-.06.97-.06.3,0,.83.04,1.59.11,1.82.11,3.1.19,3.86.23v.23c0,2.46-.04,6.23-.11,11.3-.11,5.03-.17,10.13-.17,15.27,0,4.81.08,9.12.23,12.95-.3.23-1.06.34-2.27.34l-3.12-.06c-.49,0-.97.04-1.42.11.15-2.88.23-6.3.23-10.28,0-2.42-.02-4.26-.06-5.51l-.17-9.71-.06-5.05c0-3.33.17-6.59.51-9.77v-.11Z"/>
      <path class="cls-1" d="M187.45,99.08c0,.57.04,1.53.11,2.9v1.14h-4.83c-.45-.91-.94-1.85-1.45-2.84-.51-.98-1.01-1.95-1.5-2.9-.45-.87-1.67-3.23-3.63-7.07-1.97-3.84-3.79-7.52-5.45-11.04-.19-.42-.38-.85-.57-1.31-.19-.45-.32-.72-.4-.79-.08-.08-.13,0-.17.23v1.65c0,1.06,0,2.97.03,5.73.02,2.76.03,7.1.03,13v1.48c0,1.86.02,3.14.06,3.86-.64.15-1.29.21-1.93.17-.42,0-1-.04-1.76-.11-.91-.08-1.57-.11-1.99-.11v-3.97c0-2.42-.04-5.87-.11-10.33l-.06-10.16c0-6.02.17-11.09.51-15.22.45-.08.83-.11,1.14-.11l.97.06c1.93.11,2.9.25,2.9.4.45,1.1.97,2.21,1.53,3.35.57,1.14,1.25,2.46,2.04,3.97,1.85,3.37,3.8,7.26,5.85,11.67,2.04,4.41,3.29,7.24,3.75,8.49.04-1.51-.02-3.99-.17-7.44l-.11-3.8c-.08-4.2-.15-7.21-.23-9.03l-.06-3.07v-4.83c.91-.11,1.85-.17,2.84-.17,1.21.08,2.12.17,2.73.28v18.28c.04,2.12.06,5.36.06,9.71l-.06,6.3c-.04.38-.06.93-.06,1.65Z"/>
      <path class="cls-1" d="M214.98,63.03l1.53,39.75c-.61.11-1.61.17-3.01.17h-2.33c-.19-1.85-.32-3.51-.4-4.97-.08-1.46-.11-2.85-.11-4.17-.08-3.03-.17-5.58-.28-7.67h-2.61c-1.17-.11-2.44-.17-3.8-.17-1.85,0-3.84.11-5.96.34-.08,2.16-.11,4.6-.11,7.32l.06,6.25c0,1.21-.02,2.21-.06,3.01-.34.15-.83.23-1.48.23-.38,0-.87-.04-1.48-.11l-1.25-.06c-.27,0-.51.04-.74.11-.19-2.8-.38-7.64-.57-14.51-.19-6.87-.28-13.2-.28-18.99,0-2.84.02-4.86.06-6.08l.06-.06h.11c.53.08.97.11,1.31.11l1.82-.06c.61,0,1.04.04,1.31.11.19,2.54.3,4.98.34,7.32.04.45.1,1.76.2,3.92.09,2.16.26,4.11.48,5.85h.06c1.17.08,2.8.11,4.88.11,2.61,0,5-.09,7.15-.28h.06c.08-3.26.11-5.72.11-7.38s-.04-5-.11-9.77c1.06-.26,2.35-.4,3.86-.4.57,0,.97.02,1.19.06Z"/>
      <path class="cls-1" d="M224.29,65.01c2.27-1.1,4.84-1.65,7.72-1.65,2.57,0,4.87.5,6.9,1.5,2.02,1,3.4,2.55,4.12,4.63.72,1.59,1.08,3.75,1.08,6.47,0,1.21-.02,2.1-.06,2.67-.08,1.33-.11,3.27-.11,5.85,0,.64,0,1.45-.03,2.41-.02.97-.07,2.09-.14,3.38l-.17,1.87c-.27,3.22-.98,5.77-2.16,7.67-.98,1.36-2.45,2.38-4.4,3.07-1.95.68-4,1.02-6.16,1.02-.79,0-1.38-.02-1.76-.06-2.88-.23-5.05-1.11-6.53-2.64-1.48-1.53-2.25-4.08-2.33-7.64l-.17-3.58c-.04-.76-.09-2.07-.17-3.95-.08-1.87-.11-3.59-.11-5.14,0-1.74.06-3.46.17-5.17.04-2.27.38-4.41,1.02-6.42.64-2.01,1.74-3.44,3.29-4.31ZM239.17,83.41l-.06-4.54c-.15-2.57-.28-4.32-.4-5.25-.11-.93-.68-2.03-1.7-3.32-1.02-1.29-2.71-1.93-5.05-1.93-2.88,0-4.89,1.27-6.05,3.8-1.16,2.54-1.73,6.4-1.73,11.58,0,3.18.07,5.65.2,7.41.13,1.76.41,3.18.82,4.26.42,1.08,1.06,1.92,1.93,2.53.91.64,2.21.97,3.92.97,2.69,0,4.64-.55,5.85-1.65,1.21-1.1,1.87-2.71,1.99-4.83,0-1.14.04-2.48.11-4.03.08-1.55.13-2.56.17-3.01v-1.99Z"/>
      <path class="cls-1" d="M277.19,70.82h-.07c-1.36.23-2.64.34-3.82.34-1.27,0-2.29-.11-3.07-.34.09-.41.14-1,.14-1.77,0-1.5-.36-2.76-1.09-3.78-.73-1.02-1.73-1.76-3-2.21-.91-.32-1.91-.48-3-.48-1.59,0-3.11.35-4.56,1.06-1.45.7-2.59,1.67-3.41,2.9-.82,1.23-1.16,2.59-1.02,4.09.59,3.45,2.97,5.25,7.15,5.38,5.22.18,9.15,1.39,11.79,3.61,2.63,2.23,3.95,5.07,3.95,8.52,0,3.27-.62,6.06-1.87,8.38-1.25,2.32-2.94,4.05-5.08,5.21-2.14,1.16-4.5,1.74-7.09,1.74s-5.11-.47-7.56-1.4c-2.45-.93-4.5-2.3-6.13-4.12-1.64-1.82-2.57-3.97-2.79-6.47v-.07c-.14-.55-.2-1.16-.2-1.84v-.48c1-.09,1.77-.14,2.32-.14l2.52.07c.5.05,1.2.07,2.11.07-.05,1.82.51,3.36,1.67,4.63,1.16,1.27,2.92,2.2,5.28,2.79.68.18,1.39.27,2.11.27,1.5,0,2.86-.36,4.09-1.09,1.23-.73,2.16-1.73,2.79-3,.64-1.27.89-2.68.75-4.22-.18-1.73-.76-3.02-1.74-3.88-.98-.86-2.11-1.43-3.41-1.7-1.29-.27-3.08-.5-5.35-.68l-2.59-.2c-2.32-.36-4.29-1.26-5.93-2.69-1.63-1.43-2.75-3.1-3.34-5.01-.41-1.36-.61-2.7-.61-4.02,0-1.45.2-2.82.61-4.09.64-2.13,1.69-4.05,3.17-5.76,1.48-1.7,3.24-2.99,5.28-3.85,1.77-.73,3.84-1.09,6.2-1.09,3.22,0,6.2.61,8.93,1.84,1.91.95,3.42,2.31,4.53,4.05,1.11,1.75,1.67,3.83,1.67,6.23,0,.86-.11,1.93-.34,3.2Z"/>
    </g>
  </g>
  <g>
    <g>
      <path class="cls-2" d="M61.73,19.69c1.82-.88,3.88-1.32,6.18-1.32,2.06,0,3.9.4,5.52,1.2,1.62.8,2.72,2.04,3.29,3.7.57,1.27.86,3,.86,5.18,0,.97-.02,1.68-.05,2.13-.06,1.06-.09,2.62-.09,4.68,0,.52,0,1.16-.02,1.93-.02.77-.05,1.67-.11,2.7l-.14,1.5c-.21,2.57-.79,4.62-1.73,6.13-.79,1.09-1.96,1.91-3.52,2.45-1.56.54-3.2.82-4.93.82-.64,0-1.11-.02-1.41-.05-2.3-.18-4.04-.89-5.22-2.11-1.18-1.23-1.8-3.26-1.86-6.11l-.14-2.86c-.03-.61-.08-1.66-.14-3.16-.06-1.5-.09-2.87-.09-4.11,0-1.39.05-2.77.14-4.13.03-1.82.3-3.53.82-5.13.51-1.6,1.39-2.76,2.63-3.45ZM73.63,34.41l-.05-3.63c-.12-2.06-.23-3.46-.32-4.2-.09-.74-.55-1.63-1.36-2.66-.82-1.03-2.17-1.54-4.04-1.54-2.3,0-3.91,1.01-4.84,3.04-.92,2.03-1.39,5.12-1.39,9.27,0,2.54.05,4.52.16,5.93.11,1.41.32,2.54.66,3.41.33.86.85,1.54,1.54,2.02.73.52,1.77.77,3.13.77,2.15,0,3.71-.44,4.68-1.32.97-.88,1.5-2.16,1.59-3.86,0-.91.03-1.98.09-3.23.06-1.24.11-2.04.14-2.41v-1.59Z"/>
      <path class="cls-2" d="M94.58,34.02h-.03c-.68.11-1.32.17-1.91.17-.64,0-1.15-.06-1.53-.17.05-.2.07-.5.07-.89,0-.75-.18-1.38-.54-1.89-.36-.51-.86-.88-1.5-1.11-.45-.16-.95-.24-1.5-.24-.8,0-1.56.18-2.28.53-.73.35-1.29.83-1.7,1.45-.41.61-.58,1.29-.51,2.04.3,1.73,1.49,2.62,3.58,2.69,2.61.09,4.58.69,5.89,1.81,1.32,1.11,1.98,2.53,1.98,4.26,0,1.64-.31,3.03-.94,4.19-.63,1.16-1.47,2.03-2.54,2.61-1.07.58-2.25.87-3.54.87s-2.56-.23-3.78-.7c-1.23-.47-2.25-1.15-3.07-2.06-.82-.91-1.28-1.99-1.4-3.24v-.03c-.07-.27-.1-.58-.1-.92v-.24c.5-.05.89-.07,1.16-.07l1.26.03c.25.02.6.03,1.06.03-.02.91.26,1.68.83,2.32.58.64,1.46,1.1,2.64,1.4.34.09.69.14,1.06.14.75,0,1.43-.18,2.04-.54.61-.36,1.08-.86,1.4-1.5.32-.64.44-1.34.37-2.11-.09-.86-.38-1.51-.87-1.94-.49-.43-1.06-.72-1.7-.85s-1.54-.25-2.67-.34l-1.29-.1c-1.16-.18-2.15-.63-2.96-1.35-.82-.72-1.37-1.55-1.67-2.5-.2-.68-.31-1.35-.31-2.01,0-.73.1-1.41.31-2.04.32-1.07.85-2.03,1.58-2.88.74-.85,1.62-1.49,2.64-1.92.89-.36,1.92-.55,3.1-.55,1.61,0,3.1.31,4.46.92.95.48,1.71,1.15,2.27,2.03.56.87.83,1.91.83,3.12,0,.43-.06.97-.17,1.6Z"/>
    </g>
    <g>
      <path class="cls-2" d="M95.27,4.04c2.68,0,4.68-.02,6-.07l6.34-.07c6.63,0,12.11.25,16.42.75.04.41.07,1.11.07,2.11,0,1.54-.11,3.18-.34,4.91-1-.18-2.41-.25-4.22-.2-1.45.09-2.91.14-4.36.14h-1.77c.09.27.09.54,0,.82-.05.27-.07,3.34-.07,9.2,0,1.41.02,2.57.07,3.47.14,11.99.27,20.78.41,26.37v.14c-.82.14-2.07.2-3.75.2-1.77,0-3.11.09-4.02.27-.05-.18-.06-.49-.03-.92.02-.43.03-.92.03-1.47v-4.16c.04-.91.07-2.54.07-4.91,0-2.68-.02-4.84-.07-6.47-.09-6.5-.25-13.81-.48-21.94v-.27c-.95-.27-3.47-.45-7.56-.55-1.45,0-2.25-.02-2.38-.07-.14-.27-.23-1.13-.27-2.59-.05-1.45-.07-3.02-.07-4.7Z"/>
      <path class="cls-2" d="M154.12,51.84l-2.84.06c-1.7.08-2.93.1-3.69.06-.76-.91-1.57-1.95-2.44-3.12-2.12-2.65-3.8-4.71-5.03-6.19-1.23-1.48-2.55-2.88-3.95-4.2l-2.73-2.21c-.08,1.29-.11,2.54-.11,3.75v1.93c0,3.29.13,6.53.4,9.71-.95.3-2.18.45-3.69.45-.68,0-1.29-.02-1.82-.06-.53-.04-.93-.04-1.19,0,.15-.04.23-3.39.23-10.05,0-6.13-.06-12.31-.17-18.54-.11-6.23-.27-9.93-.45-11.1,2.46-.34,4.44-.6,5.93-.77,1.49-.17,3.11-.26,4.85-.26,1.51,0,2.9.08,4.14.23,2.2.11,4.19.75,5.99,1.9,1.8,1.16,3.21,2.65,4.23,4.49,1.02,1.84,1.53,3.78,1.53,5.82s-.57,4.03-1.7,5.96c-.64,1.21-1.35,2.15-2.13,2.81-.78.66-1.97,1.16-3.58,1.5-1.61.34-3.87.49-6.79.45l3.58,4.03c1.93,2.12,3.62,4.03,5.08,5.73,1.46,1.7,3.55,4.24,6.27,7.61h.06ZM139.3,29.53c1.67,0,2.97-.08,3.92-.23,2.65-.45,3.97-2.44,3.97-5.96,0-2.23-.8-3.94-2.41-5.11-1.61-1.17-3.7-1.76-6.27-1.76-1.78,0-3.92.23-6.42.68.26,1.33.4,3.31.4,5.96l-.06,3.86c0,.98.04,1.74.11,2.27h.06c2.84.19,5.07.28,6.7.28Z"/>
      <path class="cls-2" d="M180.3,47.01v.11c.08,2.01-.02,3.58-.28,4.71-1.82-.04-4.6-.02-8.35.06-2.95.08-5.19.11-6.7.11-3.26,0-6-.09-8.23-.28,0-4.28-.06-8.52-.17-12.72-.08-5.6-.11-9.77-.11-12.49,0-5.45.11-9.99.34-13.63,7-.34,13.46-.51,19.36-.51,2.76,0,4.14.06,4.14.17.04.27.06.68.06,1.25,0,.76-.02,1.31-.06,1.65l-.06,1.7v.57c-2.73.19-5.13.28-7.21.28h-4.94c-2.2,0-4.07.06-5.62.17l-.23.06c.08.95.02,2.67-.17,5.17-.08,1.89-.11,3.09-.11,3.58,0,1.17.08,2.04.23,2.61l.06.06c1.82.04,3.75.06,5.79.06,1.74,0,3.16.04,4.26.11v.06c.08.57.11,1.36.11,2.38,0,.34,0,.73-.03,1.16-.02.44,0,.9.03,1.39-.87.08-1.57.13-2.1.17-.53.04-1.14.06-1.82.06-1.14,0-2.2.02-3.18.06-1.7.08-2.65.17-2.84.28-.15.87-.23,2.1-.23,3.69,0,1.06.02,1.87.06,2.44,0,.49,0,1.26.03,2.3.02,1.04,0,2-.03,2.87l.06.06c2.73-.04,6.21.04,10.45.23,2.42.08,4.16.11,5.22.11l2.27-.06ZM168.43,0l9.2,9.14s-.53,0-1.48.14c-.95.13-1.97.18-3.07.14-.15,0-.78-.55-1.87-1.65l-1.31-1.25c-.61-.79-1.1-1.31-1.48-1.53-.08.04-.47.45-1.19,1.25-1.59,1.89-2.67,2.92-3.24,3.07-.23.04-.53.06-.91.06l-3.8-.17c1.1-1.36,2.16-2.55,3.18-3.58,1.02-1.02,2.31-2.25,3.86-3.69l2.1-1.93Z"/>
      <path class="cls-2" d="M207.78,25.1h-.06c-1.14.19-2.2.28-3.18.28-1.06,0-1.91-.09-2.55-.28.08-.34.11-.83.11-1.48,0-1.25-.3-2.3-.91-3.15-.61-.85-1.44-1.47-2.5-1.85-.76-.26-1.59-.4-2.5-.4-1.33,0-2.59.29-3.8.88-1.21.59-2.16,1.39-2.84,2.41-.68,1.02-.97,2.16-.85,3.41.49,2.88,2.48,4.37,5.96,4.49,4.35.15,7.63,1.16,9.82,3.01,2.19,1.86,3.29,4.22,3.29,7.1,0,2.73-.52,5.05-1.56,6.98-1.04,1.93-2.45,3.38-4.23,4.34-1.78.97-3.75,1.45-5.91,1.45s-4.26-.39-6.3-1.16c-2.04-.78-3.75-1.92-5.11-3.44-1.36-1.51-2.14-3.31-2.33-5.39v-.06c-.11-.45-.17-.97-.17-1.53v-.4c.83-.08,1.48-.11,1.93-.11l2.1.06c.42.04,1,.06,1.76.06-.04,1.51.43,2.8,1.39,3.86.97,1.06,2.43,1.84,4.4,2.33.57.15,1.15.23,1.76.23,1.25,0,2.38-.3,3.41-.91,1.02-.6,1.8-1.44,2.33-2.5.53-1.06.74-2.23.62-3.52-.15-1.44-.63-2.52-1.45-3.24-.81-.72-1.76-1.19-2.84-1.42-1.08-.23-2.56-.42-4.46-.57l-2.16-.17c-1.93-.3-3.58-1.05-4.94-2.24-1.36-1.19-2.29-2.58-2.78-4.17-.34-1.14-.51-2.25-.51-3.35,0-1.21.17-2.35.51-3.41.53-1.78,1.41-3.38,2.64-4.8,1.23-1.42,2.7-2.49,4.4-3.21,1.48-.6,3.2-.91,5.17-.91,2.69,0,5.17.51,7.44,1.53,1.59.79,2.85,1.92,3.78,3.38.93,1.46,1.39,3.19,1.39,5.2,0,.72-.1,1.61-.28,2.67Z"/>
    </g>
    <g>
      <path class="cls-2" d="M30.46,67.76v.89c-.32,4.82-2.19,8.48-5.62,11-3.43,2.52-8.21,3.78-14.34,3.78-1.27,0-2.23-.02-2.86-.07.04.41.07,1.02.07,1.84v2.73c0,1.73.07,5.91.2,12.54v.07l-.2.07c-1.09.27-2.43.41-4.02.41-1.09,0-2.16-.07-3.2-.2-.14-3.04-.2-8.13-.2-15.26v-13.49c0-7.04-.09-13.1-.27-18.19,3.09-.86,6.4-1.29,9.95-1.29,5.54,0,10.28,1.22,14.21,3.65,3.93,2.43,6.03,6.28,6.3,11.55ZM23.78,66.13c-.64-2.27-1.59-3.82-2.86-4.63-1.27-.86-2.54-1.48-3.82-1.84-1.27-.36-2.91-.55-4.91-.55-2.59,0-4.5.16-5.72.48.04.5.07,1.16.07,1.98v7.02c.09,4.41.23,7.27.41,8.58,2.77,0,5.33-.14,7.67-.41,2.34-.27,4.52-1.01,6.54-2.21,2.02-1.2,3.03-3.05,3.03-5.55,0-.91-.14-1.86-.41-2.86Z"/>
      <path class="cls-2" d="M37.42,63.12c2.27-1.1,4.84-1.65,7.72-1.65,2.57,0,4.87.5,6.9,1.5,2.02,1,3.4,2.55,4.12,4.63.72,1.59,1.08,3.75,1.08,6.47,0,1.21-.02,2.1-.06,2.67-.08,1.33-.11,3.27-.11,5.85,0,.64,0,1.45-.03,2.41-.02.97-.07,2.09-.14,3.38l-.17,1.87c-.27,3.22-.98,5.77-2.16,7.67-.98,1.36-2.45,2.38-4.4,3.07-1.95.68-4,1.02-6.16,1.02-.79,0-1.38-.02-1.76-.06-2.88-.23-5.05-1.11-6.53-2.64-1.48-1.53-2.25-4.08-2.33-7.64l-.17-3.58c-.04-.76-.09-2.07-.17-3.95-.08-1.87-.11-3.59-.11-5.14,0-1.74.06-3.46.17-5.17.04-2.27.38-4.41,1.02-6.42.64-2.01,1.74-3.44,3.29-4.31ZM52.29,81.52l-.06-4.54c-.15-2.57-.28-4.32-.4-5.25-.11-.93-.68-2.03-1.7-3.32-1.02-1.29-2.71-1.93-5.05-1.93-2.88,0-4.89,1.27-6.05,3.8-1.16,2.54-1.73,6.4-1.73,11.58,0,3.18.07,5.65.2,7.41.13,1.76.41,3.18.82,4.26.42,1.08,1.06,1.92,1.93,2.53.91.64,2.21.97,3.92.97,2.69,0,4.64-.55,5.85-1.65,1.21-1.1,1.87-2.71,1.99-4.83,0-1.14.04-2.48.11-4.03.08-1.55.13-2.56.17-3.01v-1.99Z"/>
      <path class="cls-2" d="M88.12,101.05l-2.84.06c-1.7.08-2.93.1-3.69.06-.76-.91-1.57-1.95-2.44-3.12-2.12-2.65-3.8-4.71-5.03-6.19-1.23-1.48-2.55-2.88-3.95-4.2l-2.73-2.21c-.08,1.29-.11,2.54-.11,3.75v1.93c0,3.29.13,6.53.4,9.71-.95.3-2.18.45-3.69.45-.68,0-1.29-.02-1.82-.06-.53-.04-.93-.04-1.19,0,.15-.04.23-3.39.23-10.05,0-6.13-.06-12.31-.17-18.54-.11-6.23-.27-9.93-.45-11.1,2.46-.34,4.44-.6,5.93-.77,1.49-.17,3.11-.26,4.85-.26,1.51,0,2.9.08,4.14.23,2.2.11,4.19.75,5.99,1.9,1.8,1.16,3.21,2.65,4.23,4.49,1.02,1.84,1.53,3.78,1.53,5.82s-.57,4.03-1.7,5.96c-.64,1.21-1.35,2.15-2.13,2.81-.78.66-1.97,1.16-3.58,1.5-1.61.34-3.87.49-6.79.45l3.58,4.03c1.93,2.12,3.62,4.03,5.08,5.73,1.46,1.7,3.55,4.24,6.27,7.61h.06ZM73.3,78.73c1.67,0,2.97-.08,3.92-.23,2.65-.45,3.97-2.44,3.97-5.96,0-2.23-.8-3.94-2.41-5.11-1.61-1.17-3.7-1.76-6.27-1.76-1.78,0-3.92.23-6.42.68.26,1.33.4,3.31.4,5.96l-.06,3.86c0,.98.04,1.74.11,2.27h.06c2.84.19,5.07.28,6.7.28Z"/>
      <path class="cls-2" d="M114.58,86.23l-.11,1.87c-.08,1.7-.21,2.95-.4,3.75-.11.83-.35,1.65-.71,2.44-.36.79-1.11,1.89-2.24,3.29.72.87,1.15,1.44,1.31,1.7.04.3-.07.59-.31.85-.25.27-.69.61-1.33,1.02-.15.11-.33.25-.54.4-.21.15-.37.23-.48.23-.23,0-.47-.15-.74-.45-.15-.15-.41-.39-.77-.71-.36-.32-.62-.58-.77-.77-.45.53-1.31.97-2.55,1.31-1.25.34-2.46.47-3.63.4-1.82-.15-3.32-.48-4.51-.99-1.19-.51-2.36-1.32-3.49-2.41-1.4-1.36-2.32-2.94-2.75-4.74-.44-1.8-.65-4.06-.65-6.79v-7.44c0-2.69.09-5.09.26-7.21.17-2.12.5-4.07.99-5.85.53-1.59,1.85-2.9,3.95-3.92,2.1-1.02,4.59-1.53,7.47-1.53,2.04,0,3.64.12,4.8.37,1.15.25,2.19.81,3.12,1.7.93.89,1.81,2.32,2.64,4.29,1.1,3.45,1.65,7.87,1.65,13.29,0,2.42-.06,4.39-.17,5.91ZM104.13,92.13c.15-.11.36-.28.62-.51.26-.23.53-.36.79-.4.57.34,1.06.85,1.48,1.53.3.45.59.81.85,1.08.64-1.21,1.14-2.34,1.5-3.38.36-1.04.6-2.43.71-4.17.04-.87.06-2.1.06-3.69,0-3.86-.3-7.53-.91-11.01-.3-1.4-.65-2.47-1.05-3.21-.4-.74-1.02-1.29-1.87-1.65-.85-.36-2.07-.54-3.66-.54-2.38.04-4.1.29-5.14.77-1.04.47-1.71,1.28-2.02,2.41-.3,1.14-.55,3.05-.74,5.73-.15,1.7-.23,3.69-.23,5.96v1.65c0,.49-.02.87-.06,1.14,0,.23,0,.6-.03,1.11-.02.51,0,.97.03,1.39.08,2.16.28,3.97.62,5.42.34,1.46,1.09,2.71,2.24,3.75,1.15,1.04,2.9,1.56,5.25,1.56.57,0,1.08-.08,1.53-.23.45-.15.7-.32.74-.51-.08-.08-.43-.48-1.05-1.22-.62-.74-.96-1.31-.99-1.73.04-.3.23-.56.57-.77.34-.21.59-.37.74-.48Z"/>
      <path class="cls-2" d="M137.35,63.12c1.7-.19,2.86-.28,3.46-.28.91,0,1.61.13,2.1.4.19,4.05.28,7.7.28,10.96,0,6.51-.32,12.66-.97,18.45-.34,2.57-1.33,4.71-2.95,6.42-1.63,1.7-3.75,2.69-6.36,2.95-.42.04-1.02.06-1.82.06-3.41,0-6.31-.82-8.72-2.47-2.4-1.65-3.68-4.08-3.83-7.3-.04-1.44-.06-3.63-.06-6.59s.02-5.32.06-6.87c.08-4.24.11-7.4.11-9.48l-.06-6.7-.06-.06h.06l2.78-.06c1.1,0,2.01.08,2.73.23-.04.72-.06,1.74-.06,3.07l-.06,2.27c-.11,3.63-.17,6.81-.17,9.54,0,3.94.15,7.15.45,9.65.3,2.5.85,4.79,1.65,6.87.6.95,1.46,1.59,2.55,1.93.76.19,1.42.28,1.99.28.98,0,1.89-.2,2.73-.6.83-.4,1.48-.99,1.93-1.79.87-2.01,1.46-4.48,1.76-7.41.3-2.93.45-6.44.45-10.53l-.06-8.74c0-1.89.02-3.29.06-4.2Z"/>
      <path class="cls-2" d="M149.21,61.02c.26-.04.59-.06.97-.06.3,0,.83.04,1.59.11,1.82.11,3.1.19,3.86.23v.23c0,2.46-.04,6.23-.11,11.3-.11,5.03-.17,10.13-.17,15.27,0,4.81.08,9.12.23,12.95-.3.23-1.06.34-2.27.34l-3.12-.06c-.49,0-.97.04-1.42.11.15-2.88.23-6.3.23-10.28,0-2.42-.02-4.26-.06-5.51l-.17-9.71-.06-5.05c0-3.33.17-6.59.51-9.77v-.11Z"/>
      <path class="cls-2" d="M185.55,97.19c0,.57.04,1.53.11,2.9v1.14h-4.83c-.45-.91-.94-1.85-1.45-2.84-.51-.98-1.01-1.95-1.5-2.9-.45-.87-1.67-3.23-3.63-7.07-1.97-3.84-3.79-7.52-5.45-11.04-.19-.42-.38-.85-.57-1.31-.19-.45-.32-.72-.4-.79-.08-.08-.13,0-.17.23v1.65c0,1.06,0,2.97.03,5.73.02,2.76.03,7.1.03,13v1.48c0,1.86.02,3.14.06,3.86-.64.15-1.29.21-1.93.17-.42,0-1-.04-1.76-.11-.91-.08-1.57-.11-1.99-.11v-3.97c0-2.42-.04-5.87-.11-10.33l-.06-10.16c0-6.02.17-11.09.51-15.22.45-.08.83-.11,1.14-.11l.97.06c1.93.11,2.9.25,2.9.4.45,1.1.97,2.21,1.53,3.35.57,1.14,1.25,2.46,2.04,3.97,1.85,3.37,3.8,7.26,5.85,11.67,2.04,4.41,3.29,7.24,3.75,8.49.04-1.51-.02-3.99-.17-7.44l-.11-3.8c-.08-4.2-.15-7.21-.23-9.03l-.06-3.07v-4.83c.91-.11,1.85-.17,2.84-.17,1.21.08,2.12.17,2.73.28v18.28c.04,2.12.06,5.36.06,9.71l-.06,6.3c-.04.38-.06.93-.06,1.65Z"/>
      <path class="cls-2" d="M213.09,61.13l1.53,39.75c-.61.11-1.61.17-3.01.17h-2.33c-.19-1.85-.32-3.51-.4-4.97-.08-1.46-.11-2.85-.11-4.17-.08-3.03-.17-5.58-.28-7.67h-2.61c-1.17-.11-2.44-.17-3.8-.17-1.85,0-3.84.11-5.96.34-.08,2.16-.11,4.6-.11,7.32l.06,6.25c0,1.21-.02,2.21-.06,3.01-.34.15-.83.23-1.48.23-.38,0-.87-.04-1.48-.11l-1.25-.06c-.27,0-.51.04-.74.11-.19-2.8-.38-7.64-.57-14.51-.19-6.87-.28-13.2-.28-18.99,0-2.84.02-4.86.06-6.08l.06-.06h.11c.53.08.97.11,1.31.11l1.82-.06c.61,0,1.04.04,1.31.11.19,2.54.3,4.98.34,7.32.04.45.1,1.76.2,3.92.09,2.16.26,4.11.48,5.85h.06c1.17.08,2.8.11,4.88.11,2.61,0,5-.09,7.15-.28h.06c.08-3.26.11-5.72.11-7.38s-.04-5-.11-9.77c1.06-.26,2.35-.4,3.86-.4.57,0,.97.02,1.19.06Z"/>
      <path class="cls-2" d="M222.4,63.12c2.27-1.1,4.84-1.65,7.72-1.65,2.57,0,4.87.5,6.9,1.5,2.02,1,3.4,2.55,4.12,4.63.72,1.59,1.08,3.75,1.08,6.47,0,1.21-.02,2.1-.06,2.67-.08,1.33-.11,3.27-.11,5.85,0,.64,0,1.45-.03,2.41-.02.97-.07,2.09-.14,3.38l-.17,1.87c-.27,3.22-.98,5.77-2.16,7.67-.98,1.36-2.45,2.38-4.4,3.07-1.95.68-4,1.02-6.16,1.02-.79,0-1.38-.02-1.76-.06-2.88-.23-5.05-1.11-6.53-2.64-1.48-1.53-2.25-4.08-2.33-7.64l-.17-3.58c-.04-.76-.09-2.07-.17-3.95-.08-1.87-.11-3.59-.11-5.14,0-1.74.06-3.46.17-5.17.04-2.27.38-4.41,1.02-6.42.64-2.01,1.74-3.44,3.29-4.31ZM237.28,81.52l-.06-4.54c-.15-2.57-.28-4.32-.4-5.25-.11-.93-.68-2.03-1.7-3.32-1.02-1.29-2.71-1.93-5.05-1.93-2.88,0-4.89,1.27-6.05,3.8-1.16,2.54-1.73,6.4-1.73,11.58,0,3.18.07,5.65.2,7.41.13,1.76.41,3.18.82,4.26.42,1.08,1.06,1.92,1.93,2.53.91.64,2.21.97,3.92.97,2.69,0,4.64-.55,5.85-1.65,1.21-1.1,1.87-2.71,1.99-4.83,0-1.14.04-2.48.11-4.03.08-1.55.13-2.56.17-3.01v-1.99Z"/>
      <path class="cls-2" d="M275.3,68.92h-.07c-1.36.23-2.64.34-3.82.34-1.27,0-2.29-.11-3.07-.34.09-.41.14-1,.14-1.77,0-1.5-.36-2.76-1.09-3.78-.73-1.02-1.73-1.76-3-2.21-.91-.32-1.91-.48-3-.48-1.59,0-3.11.35-4.56,1.06-1.45.7-2.59,1.67-3.41,2.9-.82,1.23-1.16,2.59-1.02,4.09.59,3.45,2.97,5.25,7.15,5.38,5.22.18,9.15,1.39,11.79,3.61,2.63,2.23,3.95,5.07,3.95,8.52,0,3.27-.62,6.06-1.87,8.38-1.25,2.32-2.94,4.05-5.08,5.21-2.14,1.16-4.5,1.74-7.09,1.74s-5.11-.47-7.56-1.4c-2.45-.93-4.5-2.3-6.13-4.12-1.64-1.82-2.57-3.97-2.79-6.47v-.07c-.14-.55-.2-1.16-.2-1.84v-.48c1-.09,1.77-.14,2.32-.14l2.52.07c.5.05,1.2.07,2.11.07-.05,1.82.51,3.36,1.67,4.63,1.16,1.27,2.92,2.2,5.28,2.79.68.18,1.39.27,2.11.27,1.5,0,2.86-.36,4.09-1.09,1.23-.73,2.16-1.73,2.79-3,.64-1.27.89-2.68.75-4.22-.18-1.73-.76-3.02-1.74-3.88-.98-.86-2.11-1.43-3.41-1.7-1.29-.27-3.08-.5-5.35-.68l-2.59-.2c-2.32-.36-4.29-1.26-5.93-2.69-1.63-1.43-2.75-3.1-3.34-5.01-.41-1.36-.61-2.7-.61-4.02,0-1.45.2-2.82.61-4.09.64-2.13,1.69-4.05,3.17-5.76,1.48-1.7,3.24-2.99,5.28-3.85,1.77-.73,3.84-1.09,6.2-1.09,3.22,0,6.2.61,8.93,1.84,1.91.95,3.42,2.31,4.53,4.05,1.11,1.75,1.67,3.83,1.67,6.23,0,.86-.11,1.93-.34,3.2Z"/>
    </g>
  </g>
</svg>