<?xml version="1.0" encoding="UTF-8"?>
<svg id="Camada_1" data-name="Camada 1" xmlns="http://www.w3.org/2000/svg" version="1.1" viewBox="0 0 199.8 45.01">
  <defs>
    <style>
      .cls-1 {
        fill: #e5dec8;
      }

      .cls-1, .cls-2 {
        stroke-width: 0px;
      }

      .cls-2 {
        fill: #271912;
      }
    </style>
  </defs>
  <g>
    <path class="cls-1" d="M27,25.21l-.18,19.14c-.88-.12-1.82-.18-2.82-.18l-2.58.06c-.16-3.32-.26-6.37-.3-9.15-.04-2.78-.06-4.49-.06-5.13,0-5.72-.04-11.06-.12-16.02-.24.36-.52.88-.84,1.56l-2.22,4.86c-.28.56-1.14,2.48-2.58,5.76-.24.6-.44,1.05-.6,1.35-.16.3-.3.45-.42.45-.36-.24-.87-1.02-1.53-2.34-.66-1.32-1.57-3.28-2.73-5.88-.44-1.08-1.22-2.82-2.34-5.22-.04,2.36-.06,5.5-.06,9.42,0,4.44.02,7.4.06,8.88.04,3.44.2,7.22.48,11.34-.8.12-2.1.18-3.9.18h-1.92c-.16,0-.27-.63-.33-1.89-.06-1.26-.09-3.85-.09-7.77,0-5.36.06-15.86.18-31.5.6-.16,1.35-.24,2.25-.24h1.65c.76,0,1.32-.02,1.68-.06h.06c.16.16.68,1.22,1.56,3.18.12.28.66,1.49,1.62,3.63.96,2.14,2.1,4.41,3.42,6.81.12-.04.68-1.3,1.68-3.78.16-.4.52-1.28,1.08-2.64.56-1.36,1.17-2.77,1.83-4.23.66-1.46,1.25-2.51,1.77-3.15.32.04,1.42.02,3.3-.06,1.44-.08,2.46-.12,3.06-.12-.08,2.16-.12,3.78-.12,4.86,0,1.32.04,3.34.12,6.06l.06,5.94c0,2.6-.04,4.56-.12,5.88Z"/>
    <path class="cls-1" d="M47.33,12.08c1.44-.16,2.42-.24,2.93-.24.77,0,1.36.11,1.78.34.16,3.42.24,6.51.24,9.26,0,5.5-.27,10.7-.82,15.6-.29,2.18-1.12,3.98-2.5,5.42-1.38,1.44-3.17,2.27-5.38,2.5-.35.03-.86.05-1.54.05-2.88,0-5.34-.7-7.37-2.09-2.03-1.39-3.11-3.45-3.24-6.17-.03-1.22-.05-3.07-.05-5.57s.02-4.5.05-5.81c.06-3.58.1-6.26.1-8.02l-.05-5.66-.05-.05h.05l2.35-.05c.93,0,1.7.06,2.3.19-.03.61-.05,1.47-.05,2.59l-.05,1.92c-.1,3.07-.14,5.76-.14,8.06,0,3.33.13,6.05.38,8.16.26,2.11.72,4.05,1.39,5.81.51.8,1.23,1.34,2.16,1.63.64.16,1.2.24,1.68.24.83,0,1.6-.17,2.3-.5.7-.34,1.25-.84,1.63-1.51.74-1.7,1.23-3.78,1.49-6.26.26-2.48.38-5.45.38-8.9l-.05-7.39c0-1.6.02-2.78.05-3.55Z"/>
    <path class="cls-1" d="M57.36,10.31c.22-.03.5-.05.82-.05.26,0,.7.03,1.34.1,1.54.1,2.62.16,3.26.19v.19c0,2.08-.03,5.26-.1,9.55-.1,4.26-.14,8.56-.14,12.91,0,4.06.06,7.71.19,10.94-.26.19-.9.29-1.92.29l-2.64-.05c-.42,0-.82.03-1.2.1.13-2.43.19-5.33.19-8.69,0-2.05-.02-3.6-.05-4.66l-.14-8.21-.05-4.27c0-2.82.14-5.57.43-8.26v-.1Z"/>
    <path class="cls-1" d="M66.72,10.5c1.89,0,3.3-.02,4.22-.05l4.46-.05c4.67,0,8.53.18,11.57.53.03.29.05.78.05,1.49,0,1.09-.08,2.24-.24,3.46-.7-.13-1.7-.18-2.98-.14-1.02.06-2.05.1-3.07.1h-1.25c.06.19.06.38,0,.58-.03.19-.05,2.35-.05,6.48,0,.99.02,1.81.05,2.45.1,8.45.19,14.64.29,18.58v.1c-.58.1-1.46.14-2.64.14-1.25,0-2.19.06-2.83.19-.03-.13-.04-.34-.02-.65.02-.3.02-.65.02-1.03v-2.93c.03-.64.05-1.79.05-3.46,0-1.89-.02-3.41-.05-4.56-.06-4.58-.18-9.73-.34-15.46v-.19c-.67-.19-2.45-.32-5.33-.38-1.02,0-1.58-.02-1.68-.05-.1-.19-.16-.8-.19-1.82-.03-1.02-.05-2.13-.05-3.31Z"/>
    <path class="cls-1" d="M92.64,12.08c1.92-.93,4.1-1.39,6.53-1.39,2.18,0,4.12.42,5.83,1.27,1.71.85,2.87,2.15,3.48,3.91.61,1.34.91,3.17.91,5.47,0,1.02-.02,1.78-.05,2.26-.06,1.12-.1,2.77-.1,4.94,0,.54,0,1.22-.02,2.04-.02.82-.06,1.77-.12,2.86l-.14,1.58c-.22,2.72-.83,4.88-1.82,6.48-.83,1.15-2.07,2.02-3.72,2.59-1.65.58-3.38.86-5.21.86-.67,0-1.17-.02-1.49-.05-2.43-.19-4.27-.94-5.52-2.23-1.25-1.3-1.9-3.45-1.97-6.46l-.14-3.02c-.03-.64-.08-1.75-.14-3.34s-.1-3.03-.1-4.34c0-1.47.05-2.93.14-4.37.03-1.92.32-3.73.86-5.42.54-1.7,1.47-2.91,2.78-3.65ZM105.22,27.63l-.05-3.84c-.13-2.18-.24-3.66-.34-4.44-.1-.78-.58-1.72-1.44-2.81-.86-1.09-2.29-1.63-4.27-1.63-2.43,0-4.14,1.07-5.11,3.22-.98,2.14-1.46,5.41-1.46,9.79,0,2.69.06,4.78.17,6.26.11,1.49.34,2.69.7,3.6s.9,1.62,1.63,2.14c.77.54,1.87.82,3.31.82,2.27,0,3.92-.46,4.94-1.39,1.02-.93,1.58-2.29,1.68-4.08,0-.96.03-2.1.1-3.41.06-1.31.11-2.16.14-2.54v-1.68Z"/>
    <path class="cls-1" d="M139.01,27.39c-.06.1-.1.22-.1.38,0,.19.11.4.34.62,1.18,1.47,2.05,2.7,2.59,3.7.54.99.82,2.18.82,3.55,0,.54-.05,1.1-.14,1.68-.48,2.78-1.73,4.67-3.74,5.66-2.02.99-4.61,1.49-7.78,1.49-.64,0-1.41-.02-2.3-.05-.9-.03-1.57-.06-2.02-.1-1.28-.1-2.5-.14-3.65-.14-.29,0-.5-.03-.62-.1-.1-2.53-.14-6.3-.14-11.33l.05-15.07c0-2.94-.02-5.15-.05-6.62l.05-.05c2.56-.7,5.02-1.06,7.39-1.06,3.42,0,6.22.78,8.4,2.33,2.18,1.55,3.26,4.09,3.26,7.61,0,2.37-.78,4.86-2.35,7.49ZM129.17,40.11c1.22.06,2.05.1,2.5.1,1.34,0,2.44-.2,3.29-.6.85-.4,1.59-1.16,2.23-2.28.26-.51.38-1.09.38-1.73,0-.77-.18-1.63-.53-2.59-.29-.86-.83-1.5-1.63-1.92-.8-.42-1.62-.64-2.47-.67-.85-.03-1.35-.05-1.51-.05-.19-.03-.61-.05-1.25-.05-.35,0-1.49.03-3.41.1-.29.42-.43,1.31-.43,2.69,0,1.63.21,3.91.62,6.82.77.1,1.5.16,2.21.19ZM129.17,26c1.22.06,2,.1,2.35.1,1.41,0,2.48-.18,3.22-.55.74-.37,1.31-1.03,1.73-1.99.51-.96.77-2,.77-3.12,0-.48-.05-.96-.14-1.44-.26-1.41-.86-2.42-1.82-3.05-.96-.62-2.24-.97-3.84-1.03-.32-.03-.82-.05-1.49-.05-1.76,0-2.88.14-3.36.43l.05,1.3-.1,3.36v1.97c0,1.82.1,3.1.29,3.84l2.35.24Z"/>
    <path class="cls-1" d="M165.26,40.06v.1c.06,1.7-.02,3.02-.24,3.98-1.54-.03-3.89-.02-7.06.05-2.5.06-4.38.1-5.66.1-2.75,0-5.07-.08-6.96-.24,0-3.62-.05-7.2-.14-10.75-.06-4.74-.1-8.26-.1-10.56,0-4.61.1-8.45.29-11.52,5.92-.29,11.38-.43,16.37-.43,2.33,0,3.5.05,3.5.14.03.22.05.58.05,1.06,0,.64-.02,1.1-.05,1.39l-.05,1.44v.48c-2.3.16-4.34.24-6.1.24h-4.18c-1.86,0-3.44.05-4.75.14l-.19.05c.06.8.02,2.26-.14,4.37-.06,1.6-.1,2.61-.1,3.02,0,.99.06,1.73.19,2.21l.05.05c1.54.03,3.17.05,4.9.05,1.47,0,2.67.03,3.6.1v.05c.06.48.1,1.15.1,2.02,0,.29,0,.62-.02.98-.02.37,0,.76.02,1.18-.74.06-1.33.11-1.78.14-.45.03-.96.05-1.54.05-.96,0-1.86.02-2.69.05-1.44.06-2.24.14-2.4.24-.13.74-.19,1.78-.19,3.12,0,.9.02,1.58.05,2.06,0,.42,0,1.06.02,1.94.02.88,0,1.69-.02,2.42l.05.05c2.3-.03,5.25.03,8.83.19,2.05.06,3.52.1,4.42.1l1.92-.05Z"/>
    <path class="cls-1" d="M188.3,29.02l-.14,15.31c-.71-.1-1.46-.14-2.26-.14l-2.06.05c-.13-2.66-.21-5.1-.24-7.32-.03-2.22-.05-3.59-.05-4.1,0-4.58-.03-8.85-.1-12.82-.19.29-.42.7-.67,1.25l-1.78,3.89c-.22.45-.91,1.98-2.06,4.61-.19.48-.35.84-.48,1.08-.13.24-.24.36-.34.36-.29-.19-.7-.82-1.22-1.87-.53-1.06-1.26-2.62-2.18-4.7-.35-.86-.98-2.26-1.87-4.18-.03,1.89-.05,4.4-.05,7.54,0,3.55.02,5.92.05,7.1.03,2.75.16,5.78.38,9.07-.64.1-1.68.14-3.12.14h-1.54c-.13,0-.22-.5-.26-1.51-.05-1.01-.07-3.08-.07-6.22,0-4.29.05-12.69.14-25.2.48-.13,1.08-.19,1.8-.19h1.32c.61,0,1.06-.02,1.34-.05h.05c.13.13.54.98,1.25,2.54.1.22.53,1.19,1.3,2.9.77,1.71,1.68,3.53,2.74,5.45.1-.03.54-1.04,1.34-3.02.13-.32.42-1.02.86-2.11.45-1.09.94-2.22,1.46-3.38.53-1.17,1-2.01,1.42-2.52.26.03,1.14.02,2.64-.05,1.15-.06,1.97-.1,2.45-.1-.06,1.73-.1,3.02-.1,3.89,0,1.06.03,2.67.1,4.85l.05,4.75c0,2.08-.03,3.65-.1,4.7Z"/>
    <path class="cls-1" d="M194.52,2.17h.18c.28-.04.76-.1,1.44-.18.68-.08,1.28-.12,1.8-.12.6,0,1.2.06,1.8.18-.16,7.68-.24,13.66-.24,17.94s.1,8.8.3,13.8c-.92.12-1.96.2-3.12.24-1.16.04-1.92.06-2.28.06h-.06l.06-4.08-.06-8.28c-.08-3.6-.12-6.34-.12-8.22,0-4.36.1-8.14.3-11.34ZM197.58,44.23h-3.18c-.12,0-.18-.3-.18-.9,0-.88.06-1.86.18-2.94.04-.48.08-.99.12-1.53.04-.54.06-1.09.06-1.65v-.06c.44-.2,1.06-.3,1.86-.3l1.62.06c.72.08,1.28.12,1.68.12l-.06,2.04c-.08,2.32-.12,4.04-.12,5.16h-1.98Z"/>
  </g>
  <g>
    <path class="cls-2" d="M25.08,23.34l-.18,19.14c-.88-.12-1.82-.18-2.82-.18l-2.58.06c-.16-3.32-.26-6.37-.3-9.15-.04-2.78-.06-4.49-.06-5.13,0-5.72-.04-11.06-.12-16.02-.24.36-.52.88-.84,1.56l-2.22,4.86c-.28.56-1.14,2.48-2.58,5.76-.24.6-.44,1.05-.6,1.35-.16.3-.3.45-.42.45-.36-.24-.87-1.02-1.53-2.34-.66-1.32-1.57-3.28-2.73-5.88-.44-1.08-1.22-2.82-2.34-5.22-.04,2.36-.06,5.5-.06,9.42,0,4.44.02,7.4.06,8.88.04,3.44.2,7.22.48,11.34-.8.12-2.1.18-3.9.18H.42c-.16,0-.27-.63-.33-1.89-.06-1.26-.09-3.85-.09-7.77C0,27.4.06,16.9.18,1.26c.6-.16,1.35-.24,2.25-.24h1.65c.76,0,1.32-.02,1.68-.06h.06c.16.16.68,1.22,1.56,3.18.12.28.66,1.49,1.62,3.63.96,2.14,2.1,4.41,3.42,6.81.12-.04.68-1.3,1.68-3.78.16-.4.52-1.28,1.08-2.64.56-1.36,1.17-2.77,1.83-4.23.66-1.46,1.25-2.51,1.77-3.15.32.04,1.42.02,3.3-.06,1.44-.08,2.46-.12,3.06-.12-.08,2.16-.12,3.78-.12,4.86,0,1.32.04,3.34.12,6.06l.06,5.94c0,2.6-.04,4.56-.12,5.88Z"/>
    <path class="cls-2" d="M45.41,10.21c1.44-.16,2.42-.24,2.93-.24.77,0,1.36.11,1.78.34.16,3.42.24,6.51.24,9.26,0,5.5-.27,10.7-.82,15.6-.29,2.18-1.12,3.98-2.5,5.42-1.38,1.44-3.17,2.27-5.38,2.5-.35.03-.86.05-1.54.05-2.88,0-5.34-.7-7.37-2.09-2.03-1.39-3.11-3.45-3.24-6.17-.03-1.22-.05-3.07-.05-5.57s.02-4.5.05-5.81c.06-3.58.1-6.26.1-8.02l-.05-5.66-.05-.05h.05l2.35-.05c.93,0,1.7.06,2.3.19-.03.61-.05,1.47-.05,2.59l-.05,1.92c-.1,3.07-.14,5.76-.14,8.06,0,3.33.13,6.05.38,8.16.26,2.11.72,4.05,1.39,5.81.51.8,1.23,1.34,2.16,1.63.64.16,1.2.24,1.68.24.83,0,1.6-.17,2.3-.5.7-.34,1.25-.84,1.63-1.51.74-1.7,1.23-3.78,1.49-6.26.26-2.48.38-5.45.38-8.9l-.05-7.39c0-1.6.02-2.78.05-3.55Z"/>
    <path class="cls-2" d="M55.44,8.44c.22-.03.5-.05.82-.05.26,0,.7.03,1.34.1,1.54.1,2.62.16,3.26.19v.19c0,2.08-.03,5.26-.1,9.55-.1,4.26-.14,8.56-.14,12.91,0,4.06.06,7.71.19,10.94-.26.19-.9.29-1.92.29l-2.64-.05c-.42,0-.82.03-1.2.1.13-2.43.19-5.33.19-8.69,0-2.05-.02-3.6-.05-4.66l-.14-8.21-.05-4.27c0-2.82.14-5.57.43-8.26v-.1Z"/>
    <path class="cls-2" d="M64.8,8.63c1.89,0,3.3-.02,4.22-.05l4.46-.05c4.67,0,8.53.18,11.57.53.03.29.05.78.05,1.49,0,1.09-.08,2.24-.24,3.46-.7-.13-1.7-.18-2.98-.14-1.02.06-2.05.1-3.07.1h-1.25c.06.19.06.38,0,.58-.03.19-.05,2.35-.05,6.48,0,.99.02,1.81.05,2.45.1,8.45.19,14.64.29,18.58v.1c-.58.1-1.46.14-2.64.14-1.25,0-2.19.06-2.83.19-.03-.13-.04-.34-.02-.65.02-.3.02-.65.02-1.03v-2.93c.03-.64.05-1.79.05-3.46,0-1.89-.02-3.41-.05-4.56-.06-4.58-.18-9.73-.34-15.46v-.19c-.67-.19-2.45-.32-5.33-.38-1.02,0-1.58-.02-1.68-.05-.1-.19-.16-.8-.19-1.82-.03-1.02-.05-2.13-.05-3.31Z"/>
    <path class="cls-2" d="M90.72,10.21c1.92-.93,4.1-1.39,6.53-1.39,2.18,0,4.12.42,5.83,1.27,1.71.85,2.87,2.15,3.48,3.91.61,1.34.91,3.17.91,5.47,0,1.02-.02,1.78-.05,2.26-.06,1.12-.1,2.77-.1,4.94,0,.54,0,1.22-.02,2.04-.02.82-.06,1.77-.12,2.86l-.14,1.58c-.22,2.72-.83,4.88-1.82,6.48-.83,1.15-2.07,2.02-3.72,2.59-1.65.58-3.38.86-5.21.86-.67,0-1.17-.02-1.49-.05-2.43-.19-4.27-.94-5.52-2.23s-1.9-3.45-1.97-6.46l-.14-3.02c-.03-.64-.08-1.75-.14-3.34-.06-1.58-.1-3.03-.1-4.34,0-1.47.05-2.93.14-4.37.03-1.92.32-3.73.86-5.42.54-1.7,1.47-2.91,2.78-3.65ZM103.29,25.76l-.05-3.84c-.13-2.18-.24-3.66-.34-4.44-.1-.78-.58-1.72-1.44-2.81-.86-1.09-2.29-1.63-4.27-1.63-2.43,0-4.14,1.07-5.11,3.22-.98,2.14-1.46,5.41-1.46,9.79,0,2.69.06,4.78.17,6.26s.34,2.69.7,3.6c.35.91.9,1.62,1.63,2.14.77.54,1.87.82,3.31.82,2.27,0,3.92-.46,4.94-1.39s1.58-2.29,1.68-4.08c0-.96.03-2.1.1-3.41.06-1.31.11-2.16.14-2.54v-1.68Z"/>
    <path class="cls-2" d="M137.09,25.52c-.07.1-.1.22-.1.38,0,.19.11.4.34.62,1.18,1.47,2.05,2.7,2.59,3.7.54.99.82,2.18.82,3.55,0,.54-.05,1.1-.14,1.68-.48,2.78-1.73,4.67-3.74,5.66-2.02.99-4.61,1.49-7.78,1.49-.64,0-1.41-.02-2.3-.05-.9-.03-1.57-.06-2.02-.1-1.28-.1-2.5-.14-3.65-.14-.29,0-.5-.03-.62-.1-.1-2.53-.14-6.3-.14-11.33l.05-15.07c0-2.94-.02-5.15-.05-6.62l.05-.05c2.56-.7,5.02-1.06,7.39-1.06,3.42,0,6.22.78,8.4,2.33,2.18,1.55,3.26,4.09,3.26,7.61,0,2.37-.78,4.86-2.35,7.49ZM127.25,38.24c1.22.06,2.05.1,2.5.1,1.34,0,2.44-.2,3.29-.6.85-.4,1.59-1.16,2.23-2.28.26-.51.38-1.09.38-1.73,0-.77-.18-1.63-.53-2.59-.29-.86-.83-1.5-1.63-1.92-.8-.42-1.62-.64-2.47-.67-.85-.03-1.35-.05-1.51-.05-.19-.03-.61-.05-1.25-.05-.35,0-1.49.03-3.41.1-.29.42-.43,1.31-.43,2.69,0,1.63.21,3.9.62,6.82.77.1,1.5.16,2.21.19ZM127.25,24.13c1.22.06,2,.1,2.35.1,1.41,0,2.48-.18,3.22-.55.74-.37,1.31-1.03,1.73-1.99.51-.96.77-2,.77-3.12,0-.48-.05-.96-.14-1.44-.26-1.41-.86-2.42-1.82-3.05-.96-.62-2.24-.97-3.84-1.03-.32-.03-.82-.05-1.49-.05-1.76,0-2.88.14-3.36.43l.05,1.3-.1,3.36v1.97c0,1.82.1,3.1.29,3.84l2.35.24Z"/>
    <path class="cls-2" d="M163.34,38.2v.1c.06,1.7-.02,3.02-.24,3.98-1.54-.03-3.89-.02-7.06.05-2.5.06-4.38.1-5.66.1-2.75,0-5.07-.08-6.96-.24,0-3.62-.05-7.2-.14-10.75-.06-4.74-.1-8.26-.1-10.56,0-4.61.1-8.45.29-11.52,5.92-.29,11.38-.43,16.37-.43,2.34,0,3.5.05,3.5.14.03.22.05.58.05,1.06,0,.64-.02,1.1-.05,1.39l-.05,1.44v.48c-2.3.16-4.34.24-6.1.24h-4.18c-1.86,0-3.44.05-4.75.14l-.19.05c.06.8.02,2.26-.14,4.37-.06,1.6-.1,2.61-.1,3.02,0,.99.06,1.73.19,2.21l.05.05c1.54.03,3.17.05,4.9.05,1.47,0,2.67.03,3.6.1v.05c.06.48.1,1.15.1,2.02,0,.29,0,.62-.02.98-.02.37,0,.76.02,1.18-.74.06-1.33.11-1.78.14-.45.03-.96.05-1.54.05-.96,0-1.86.02-2.69.05-1.44.06-2.24.14-2.4.24-.13.74-.19,1.78-.19,3.12,0,.9.02,1.58.05,2.06,0,.42,0,1.06.02,1.94.02.88,0,1.69-.02,2.42l.05.05c2.3-.03,5.25.03,8.83.19,2.05.06,3.52.1,4.42.1l1.92-.05Z"/>
    <path class="cls-2" d="M186.38,27.16l-.14,15.31c-.7-.1-1.46-.14-2.26-.14l-2.06.05c-.13-2.66-.21-5.1-.24-7.32-.03-2.22-.05-3.59-.05-4.1,0-4.58-.03-8.85-.1-12.82-.19.29-.42.7-.67,1.25l-1.78,3.89c-.22.45-.91,1.98-2.06,4.61-.19.48-.35.84-.48,1.08-.13.24-.24.36-.34.36-.29-.19-.7-.82-1.22-1.87s-1.26-2.62-2.18-4.7c-.35-.86-.98-2.26-1.87-4.18-.03,1.89-.05,4.4-.05,7.54,0,3.55.02,5.92.05,7.1.03,2.75.16,5.78.38,9.07-.64.1-1.68.14-3.12.14h-1.54c-.13,0-.22-.5-.26-1.51s-.07-3.08-.07-6.22c0-4.29.05-12.69.14-25.2.48-.13,1.08-.19,1.8-.19h1.32c.61,0,1.06-.02,1.34-.05h.05c.13.13.54.98,1.25,2.54.1.22.53,1.19,1.3,2.9.77,1.71,1.68,3.53,2.74,5.45.1-.03.54-1.04,1.34-3.02.13-.32.42-1.02.86-2.11.45-1.09.94-2.22,1.46-3.38.53-1.17,1-2.01,1.42-2.52.25.03,1.13.02,2.64-.05,1.15-.06,1.97-.1,2.45-.1-.06,1.73-.1,3.02-.1,3.89,0,1.06.03,2.67.1,4.85l.05,4.75c0,2.08-.03,3.65-.1,4.7Z"/>
    <path class="cls-2" d="M192.6.3h.18c.28-.04.76-.1,1.44-.18.68-.08,1.28-.12,1.8-.12.6,0,1.2.06,1.8.18-.16,7.68-.24,13.66-.24,17.94s.1,8.8.3,13.8c-.92.12-1.96.2-3.12.24-1.16.04-1.92.06-2.28.06h-.06l.06-4.08-.06-8.28c-.08-3.6-.12-6.34-.12-8.22,0-4.36.1-8.14.3-11.34ZM195.66,42.36h-3.18c-.12,0-.18-.3-.18-.9,0-.88.06-1.86.18-2.94.04-.48.08-.99.12-1.53.04-.54.06-1.09.06-1.65v-.06c.44-.2,1.06-.3,1.86-.3l1.62.06c.72.08,1.28.12,1.68.12l-.06,2.04c-.08,2.32-.12,4.04-.12,5.16h-1.98Z"/>
  </g>
</svg>