<?xml version="1.0" encoding="UTF-8"?>
<svg id="Camada_1" data-name="Camada 1" xmlns="http://www.w3.org/2000/svg" version="1.1" viewBox="0 0 52.8 52.8">
  <defs>
    <style>
      .cls-1 {
        fill: #1d1d1b;
      }

      .cls-1, .cls-2 {
        stroke-width: 0px;
      }

      .cls-2 {
        fill: #f9e2b8;
      }
    </style>
  </defs>
  <g>
    <circle class="cls-2" cx="26.4" cy="26.4" r="24.5"/>
    <path class="cls-1" d="M26.4,52.8C11.9,52.8,0,40.9,0,26.4S11.9,0,26.4,0s26.4,11.9,26.4,26.4-11.9,26.4-26.4,26.4ZM26.4,3.5C13.8,3.5,3.5,13.8,3.5,26.4s10.4,22.9,22.9,22.9,22.9-10.3,22.9-22.9S39,3.5,26.4,3.5Z"/>
  </g>
  <path class="cls-1" d="M32.8,19.5c-.3-.7-.9-1.2-1.4-1.7s-1.2-.9-1.9-1-1.6-.3-2.3-.3c-1.6,0-2.8.3-3.8.9s-1.9,1.4-2.4,2.3-1,2.1-1.4,3.3c-.3,1.2-.3,2.4-.3,3.8s.2,2.4.3,3.6.7,2.3,1.4,3.1,1.6,1.7,2.4,2.3c1,.5,2.3.9,3.8.9s3.5-.7,4.7-1.9,1.7-2.8,2.1-4.9h6.2c0,1.9-.5,3.5-1.2,5-.7,1.6-1.6,2.8-2.8,3.8-1.2,1-2.4,1.9-4,2.4s-3.3.9-5,.9-4.3-.3-6.1-1.2-3.3-1.9-4.5-3.3-2.4-2.9-3.1-4.7c-.7-1.9-1-3.8-1-6.1s.3-4.3,1-6.2,1.6-3.5,2.9-5,2.8-2.6,4.5-3.3c1.7-.9,3.8-1.2,6.1-1.2s3.1.2,4.7.7,2.8,1.2,4,2.1,2.1,2.1,2.8,3.3,1.2,2.8,1.4,4.5h-6.2c-.2-.5-.3-1.2-.9-1.9Z"/>
</svg>