<?xml version="1.0" encoding="utf-8"?>
<!-- Generator: Adobe Illustrator 27.9.0, SVG Export Plug-In . SVG Version: 6.00 Build 0)  -->
<svg version="1.1" id="Camada_1" xmlns="http://www.w3.org/2000/svg" xmlns:xlink="http://www.w3.org/1999/xlink" x="0px" y="0px"
	 viewBox="0 0 100 100" style="enable-background:new 0 0 100 100;" xml:space="preserve">
<style type="text/css">
	.st0{fill:#232323;}
</style>
<path class="st0" d="M69.6,50l28.5-28.5c2.5-2.5,2.5-6.5,0-9L87.5,1.9c-2.5-2.5-6.5-2.5-9,0L50,30.4L21.5,1.9c-2.5-2.5-6.5-2.5-9,0
	L1.9,12.5c-2.5,2.5-2.5,6.5,0,9L30.4,50L1.9,78.5c-2.5,2.5-2.5,6.5,0,9l10.6,10.6c2.5,2.5,6.5,2.5,9,0L50,69.6l28.5,28.5
	c2.5,2.5,6.5,2.5,9,0l10.6-10.6c2.5-2.5,2.5-6.5,0-9L69.6,50z"/>
</svg>
