<?xml version="1.0" encoding="utf-8"?>
<!-- Generator: Adobe Illustrator 27.9.1, SVG Export Plug-In . SVG Version: 6.00 Build 0)  -->
<svg version="1.1" id="Camada_1" xmlns="http://www.w3.org/2000/svg" xmlns:xlink="http://www.w3.org/1999/xlink" x="0px" y="0px"
	 viewBox="0 0 303.8 75" style="enable-background:new 0 0 303.8 75;" xml:space="preserve">
<style type="text/css">
	.st0{fill:#D74339;}
	.st1{fill:none;}
	.st2{enable-background:new    ;}
	.st3{fill:#FFFFFF;}
</style>
<g>
	<path class="st0" d="M266.3,75H37.5C16.9,75,0,58.1,0,37.5l0,0C0,16.9,16.9,0,37.5,0h228.8c20.6,0,37.5,16.9,37.5,37.5l0,0
		C303.8,58.1,286.9,75,266.3,75z"/>
	<g>
		<rect x="68.8" y="23" class="st1" width="166.3" height="38.9"/>
		<g class="st2">
			<path class="st3" d="M87.3,48.1c-0.5-0.5-0.8-1.2-0.8-2.1V25.8c0-0.8,0.3-1.5,0.8-2s1.2-0.8,2.1-0.8c0.9,0,1.5,0.3,2.1,0.8
				s0.8,1.2,0.8,2V46c0,0.9-0.3,1.5-0.8,2.1s-1.2,0.8-2.1,0.8C88.5,48.8,87.8,48.6,87.3,48.1z"/>
			<path class="st3" d="M118.5,23.8c0.5,0.5,0.7,1.2,0.7,2V46c0,0.8-0.2,1.5-0.7,2c-0.5,0.5-1.1,0.8-1.9,0.8c-0.9,0-1.6-0.3-2.1-0.9
				l-12.1-15.4V46c0,0.8-0.2,1.5-0.7,2c-0.5,0.5-1.1,0.8-1.9,0.8s-1.4-0.3-1.9-0.8c-0.5-0.5-0.7-1.2-0.7-2V25.8c0-0.8,0.2-1.5,0.7-2
				c0.5-0.5,1.1-0.8,1.9-0.8c0.9,0,1.6,0.3,2.1,0.9L114,39.3V25.8c0-0.8,0.2-1.5,0.7-2c0.5-0.5,1.1-0.8,1.9-0.8
				C117.4,23,118,23.3,118.5,23.8z"/>
			<path class="st3" d="M125.1,48.1c-0.5-0.5-0.8-1.2-0.8-2.1V25.8c0-0.8,0.3-1.5,0.8-2s1.2-0.8,2.1-0.8c0.9,0,1.5,0.3,2.1,0.8
				s0.8,1.2,0.8,2V46c0,0.9-0.3,1.5-0.8,2.1s-1.2,0.8-2.1,0.8C126.2,48.8,125.6,48.6,125.1,48.1z"/>
			<path class="st3" d="M140.1,47.3c-1.9-1.1-3.3-2.6-4.3-4.5s-1.5-4.3-1.5-6.9c0-2.6,0.5-4.9,1.5-6.9s2.4-3.5,4.3-4.5
				c1.9-1.1,4.1-1.6,6.6-1.6c3.1,0,5.9,0.9,8.1,2.6c0.4,0.3,0.6,0.6,0.8,0.9c0.1,0.3,0.2,0.6,0.2,1.1c0,0.6-0.2,1.2-0.5,1.6
				c-0.3,0.4-0.8,0.7-1.3,0.7c-0.3,0-0.6,0-0.9-0.1c-0.3-0.1-0.5-0.2-0.8-0.4c-1-0.6-1.8-1.1-2.7-1.4c-0.8-0.3-1.7-0.4-2.6-0.4
				c-2.3,0-4,0.7-5.2,2.1c-1.2,1.4-1.7,3.6-1.7,6.4c0,5.7,2.3,8.6,6.9,8.6c0.9,0,1.7-0.1,2.5-0.4s1.7-0.7,2.8-1.4
				c0.4-0.2,0.7-0.4,0.9-0.4s0.5-0.1,0.8-0.1c0.5,0,0.9,0.2,1.3,0.7c0.3,0.4,0.5,1,0.5,1.6c0,0.4-0.1,0.8-0.2,1.1
				c-0.2,0.3-0.4,0.6-0.7,0.8c-2.3,1.7-5,2.6-8.1,2.6C144.1,48.9,141.9,48.4,140.1,47.3z"/>
			<path class="st3" d="M160.1,48.1c-0.5-0.5-0.8-1.2-0.8-2.1V25.8c0-0.8,0.3-1.5,0.8-2s1.2-0.8,2.1-0.8c0.9,0,1.5,0.3,2.1,0.8
				s0.8,1.2,0.8,2V46c0,0.9-0.3,1.5-0.8,2.1s-1.2,0.8-2.1,0.8C161.3,48.8,160.6,48.6,160.1,48.1z"/>
			<path class="st3" d="M194,46.3c0,0.7-0.3,1.2-0.8,1.7c-0.5,0.5-1.2,0.7-1.9,0.7c-0.5,0-0.9-0.1-1.3-0.4s-0.7-0.6-0.9-1.1
				l-1.9-4.2h-12.2l-1.9,4.2c-0.2,0.5-0.5,0.9-0.9,1.1c-0.4,0.3-0.8,0.4-1.3,0.4c-0.7,0-1.3-0.2-1.9-0.7c-0.6-0.5-0.8-1-0.8-1.7
				c0-0.3,0.1-0.7,0.3-1.2l9.7-20.4c0.3-0.6,0.7-1,1.2-1.3c0.5-0.3,1.1-0.4,1.7-0.4c0.6,0,1.2,0.2,1.7,0.5c0.5,0.3,0.9,0.7,1.2,1.3
				l9.7,20.4C193.9,45.6,194,46,194,46.3z M185.2,38.7l-4.2-9.4l-4.2,9.4H185.2z"/>
			<path class="st3" d="M218.4,46.6c0,0.7-0.3,1.2-0.8,1.7c-0.5,0.4-1.2,0.6-1.9,0.6c-0.5,0-0.9-0.1-1.3-0.3c-0.4-0.2-0.8-0.6-1.1-1
				l-4.8-7.1c-0.4-0.6-0.8-1.1-1.3-1.4c-0.5-0.3-1-0.4-1.7-0.4h-2.9V46c0,0.9-0.2,1.5-0.7,2.1c-0.5,0.5-1.2,0.8-2,0.8
				c-0.9,0-1.5-0.3-2.1-0.8s-0.8-1.2-0.8-2.1V25.9c0-0.8,0.2-1.5,0.7-1.9c0.5-0.5,1.1-0.7,1.9-0.7h9c3,0,5.2,0.7,6.8,2
				c1.5,1.3,2.3,3.2,2.3,5.7c0,1.9-0.5,3.6-1.6,4.9s-2.6,2.1-4.6,2.6c0.7,0.1,1.4,0.4,1.9,0.8c0.6,0.4,1.1,1,1.6,1.8l2.7,4.1
				C218.2,45.6,218.4,46.1,218.4,46.6z M211.4,33.6c0.7-0.6,1.1-1.4,1.1-2.6c0-1.2-0.4-2.1-1.1-2.7s-1.9-0.8-3.5-0.8h-5.4v7h5.4
				C209.5,34.5,210.7,34.2,211.4,33.6z"/>
		</g>
	</g>
</g>
</svg>
