<?xml version="1.0" encoding="utf-8"?>
<!-- Generator: Adobe Illustrator 27.9.1, SVG Export Plug-In . SVG Version: 6.00 Build 0)  -->
<svg version="1.1" id="Camada_1" xmlns="http://www.w3.org/2000/svg" xmlns:xlink="http://www.w3.org/1999/xlink" x="0px" y="0px"
	 viewBox="0 0 50 50" style="enable-background:new 0 0 50 50;" xml:space="preserve">
<style type="text/css">
	.st0{fill:#EDEDED;}
</style>
<g>
	<ellipse cx="25" cy="25" rx="25" ry="25"/>
	<path class="st0" d="M33.9,33.9L33.9,33.9c1.1-1.1,1.1-2.8,0-3.9l-14-14c-1.1-1.1-2.8-1.1-3.9,0l0,0c-1.1,1.1-1.1,2.8,0,3.9
		l13.9,14C31.1,35,32.9,35,33.9,33.9z"/>
	<path class="st0" d="M16.1,33.9L16.1,33.9c1.1,1.1,2.8,1.1,3.9,0l14-14c1.1-1.1,1.1-2.8,0-3.9l0,0c-1.1-1.1-2.8-1.1-3.9,0l-14,14
		C15,31.1,15,32.9,16.1,33.9z"/>
</g>
</svg>
