<?xml version="1.0" encoding="utf-8"?>
<!-- Generator: Adobe Illustrator 28.0.0, SVG Export Plug-In . SVG Version: 6.00 Build 0)  -->
<svg version="1.1"
	 id="svg14" xmlns:dc="http://purl.org/dc/elements/1.1/" xmlns:cc="http://creativecommons.org/ns#" xmlns:sodipodi="http://sodipodi.sourceforge.net/DTD/sodipodi-0.dtd" xmlns:inkscape="http://www.inkscape.org/namespaces/inkscape" xmlns:svg="http://www.w3.org/2000/svg" xmlns:rdf="http://www.w3.org/1999/02/22-rdf-syntax-ns#" sodipodi:docname="google-logo-white.svg"
	 xmlns="http://www.w3.org/2000/svg" xmlns:xlink="http://www.w3.org/1999/xlink" x="0px" y="0px" viewBox="0 0 700 211"
	 style="enable-background:new 0 0 700 211;" xml:space="preserve">
<style type="text/css">
	.st0{fill:#FFFFFF;}
</style>
<sodipodi:namedview  bordercolor="#666666" borderopacity="1" gridtolerance="10" guidetolerance="10" id="namedview16" inkscape:current-layer="svg14" inkscape:cx="127.43865" inkscape:cy="674.46103" inkscape:pageopacity="0" inkscape:pageshadow="2" inkscape:window-height="837" inkscape:window-maximized="1" inkscape:window-width="1600" inkscape:window-x="-8" inkscape:window-y="-8" inkscape:zoom="0.30698529" objecttolerance="10" pagecolor="#ffffff" showgrid="false">
	</sodipodi:namedview>
<g id="path2" inkscape:connector-curvature="0" inkscape:export-xdpi="70.881676" inkscape:export-ydpi="70.881676">
	<path class="st0" d="M266.3,162.2c-26.2,0-46.7-20.5-46.7-46.6c0-12.9,4.9-24.8,13.7-33.4c8.7-8.5,20.4-13.2,33-13.2
		c12.6,0,24.3,4.7,33,13.2c8.8,8.6,13.7,20.5,13.7,33.4C313,141.8,292.4,162.2,266.3,162.2z M266.3,90.7c-13.2,0-23.1,10.7-23.1,25
		c0,14,10.2,25,23.1,25s23.1-11,23.1-25C289.4,101.4,279.4,90.7,266.3,90.7z"/>
	<path d="M266.3,71.1c24.6,0,44.7,18.7,44.7,44.6c0,25.7-20.1,44.6-44.7,44.6s-44.7-18.9-44.7-44.6
		C221.6,89.8,241.6,71.1,266.3,71.1 M266.3,142.7c13.5,0,25.1-11.2,25.1-27c0-16-11.6-27-25.1-27c-13.5,0-25.1,11-25.1,27
		C241.1,131.6,252.8,142.7,266.3,142.7 M266.3,67.1c-13.1,0-25.3,4.9-34.4,13.7c-9.2,9-14.3,21.4-14.3,34.8
		c0,27.2,21.4,48.6,48.7,48.6s48.7-21.3,48.7-48.6c0-13.4-5.1-25.8-14.3-34.8C291.6,72,279.4,67.1,266.3,67.1L266.3,67.1z
		 M266.3,138.7c-11.9,0-21.1-10.1-21.1-23c0-13.1,9.1-23,21.1-23s21.1,9.9,21.1,23C287.4,128.6,278.1,138.7,266.3,138.7L266.3,138.7
		z"/>
</g>
<g id="path4" inkscape:connector-curvature="0" inkscape:export-xdpi="70.881676" inkscape:export-ydpi="70.881676">
	<path class="st0" d="M362.7,162.2c-26.2,0-46.7-20.5-46.7-46.6c0-26.1,20.5-46.6,46.7-46.6c12.6,0,24.3,4.7,33,13.2
		c8.8,8.6,13.7,20.5,13.7,33.4C409.4,141.8,388.9,162.2,362.7,162.2z M362.7,90.7c-13.2,0-23.1,10.7-23.1,25c0,14,10.2,25,23.1,25
		s23.1-11,23.1-25C385.8,101.4,375.9,90.7,362.7,90.7z"/>
	<path d="M362.7,71.1c24.6,0,44.7,18.7,44.7,44.6c0,25.7-20.1,44.6-44.7,44.6S318,141.3,318,115.7C318,89.9,338.1,71.1,362.7,71.1
		 M362.7,142.7c13.5,0,25.1-11.2,25.1-27c0-16-11.6-27-25.1-27s-25.1,11-25.1,27C337.6,131.6,349.2,142.7,362.7,142.7 M362.7,67.1
		c-13.1,0-25.3,4.9-34.4,13.7c-9.2,9-14.3,21.4-14.3,34.8c0,27.2,21.4,48.6,48.7,48.6s48.7-21.3,48.7-48.6
		c0-13.4-5.1-25.8-14.3-34.8C388,72,375.8,67.1,362.7,67.1L362.7,67.1z M362.7,138.7c-11.9,0-21.1-10.1-21.1-23
		c0-13.1,9.1-23,21.1-23s21.1,9.9,21.1,23C383.8,128.6,374.5,138.7,362.7,138.7L362.7,138.7z"/>
</g>
<g id="path6" inkscape:connector-curvature="0" inkscape:export-xdpi="70.881676" inkscape:export-ydpi="70.881676">
	<path class="st0" d="M457.5,202.2c-22.1,0-36.1-14.8-41.3-27.5l-0.8-1.8l20.7-8.6l0.8,1.8c2.9,7,9.9,14.6,20.6,14.6
		c14.1,0,21.8-8.6,21.8-24.1v-2.2c-4.8,4.2-12.4,7.9-22.2,7.9c-24.2,0-44.7-21.2-44.7-46.4c0-25.3,20.5-46.7,44.7-46.7
		c9.6,0,17.3,3.7,22.2,7.8v-5.1h22.6v82C501.8,184.1,485.2,202.2,457.5,202.2z M458.8,90.7c-12.8,0-22.8,11.1-22.8,25.2
		c0,13.9,10,24.8,22.8,24.8c12.4,0,21.8-10.7,21.8-24.8C480.6,101.5,471.3,90.7,458.8,90.7z"/>
	<path d="M457.1,71.1c10.6,0,19.1,4.7,23.5,10h0.7v-7.3h18.6l0,0v80c0,32.9-19.4,46.4-42.4,46.4c-21.6,0-34.6-14.4-39.5-26.3l17-7.1
		c3,7.3,10.5,15.8,22.4,15.8c14.7,0,23.8-9.1,23.8-26.1v-6.4h-0.7c-4.4,5.4-12.8,10.1-23.5,10.1c-22.3,0-42.7-19.4-42.7-44.4
		C414.4,90.7,434.8,71.1,457.1,71.1 M458.8,142.7c13.3,0,23.8-11.3,23.8-26.8c0-15.7-10.5-27.2-23.8-27.2
		c-13.5,0-24.8,11.5-24.8,27.2C434,131.4,445.3,142.7,458.8,142.7 M457.1,67.1c-25.3,0-46.7,22.3-46.7,48.7
		c0,26.2,21.4,48.4,46.7,48.4c8.2,0,15.1-2.5,20.1-5.9c-0.6,13.3-7.4,20.3-19.7,20.3c-9.7,0-16.1-6.9-18.8-13.4l-1.5-3.7l-3.7,1.5
		l-17,7.1l-3.7,1.5l1.5,3.7c3.1,7.4,8.3,14.2,14.7,19.2c8,6.2,17.9,9.5,28.5,9.5c13.2,0,24.5-4.1,32.6-12
		c9.2-8.9,13.8-21.8,13.8-38.4v-80l-4,0v-4h-18.6h-4V73C472.2,69.7,465.3,67.1,457.1,67.1L457.1,67.1z M458.8,138.7
		c-11.7,0-20.8-10-20.8-22.8c0-13,9.1-23.2,20.8-23.2c11.3,0,19.8,10,19.8,23.2C478.6,128.9,470.1,138.7,458.8,138.7L458.8,138.7z"
		/>
</g>
<g id="path8" inkscape:connector-curvature="0" inkscape:export-xdpi="70.881676" inkscape:export-ydpi="70.881676">
	<rect x="509.4" y="24.9" class="st0" width="23.1" height="134.6"/>
	<path d="M530.5,26.9v130.6h-19.1V26.9H530.5 M534.5,22.9h-4h-19.1h-4v4v130.6v4h4h19.1h4v-4V26.9V22.9L534.5,22.9z"/>
</g>
<g id="path10" inkscape:connector-curvature="0" inkscape:export-xdpi="70.881676" inkscape:export-ydpi="70.881676">
	<path class="st0" d="M582.9,162.2c-26.4,0-46.2-20-46.2-46.6c0-26.5,18.9-46.6,44-46.6c27.6,0,38.2,24.7,40,29.7l2.7,6.9
		l-59.3,24.6c4.2,7.1,10.4,10.5,18.8,10.5c8.4,0,15-3.7,20.3-11.5l1.1-1.6l18.5,12.3l-1.1,1.7C617.5,147.8,605.3,162.2,582.9,162.2z
		 M581.4,90.3c-5.2,0-10.9,2.6-15,6.8c-2.7,2.7-5.7,7.3-6.3,14.2l35-14.5C592.6,92.9,587.4,90.3,581.4,90.3z"/>
	<path d="M580.7,71.1c23.1,0,34.4,18.4,38.1,28.3l2,5.1l-59.6,24.7c4.6,8.9,11.7,13.5,21.6,13.5c10,0,16.9-4.9,21.9-12.3l15.2,10.1
		c-4.9,7.3-16.7,19.7-37.1,19.7c-25.3,0-44.2-19.6-44.2-44.6C538.7,89.2,557.7,71.1,580.7,71.1 M558.1,114.3l39.8-16.5
		c-2.2-5.6-8.8-9.4-16.5-9.4C571.4,88.3,557.6,97.1,558.1,114.3 M604.8,130.3C604.8,130.3,604.8,130.3,604.8,130.3L604.8,130.3
		 M580.7,67.1c-26.2,0-46,20.9-46,48.6c0,13.2,4.9,25.4,13.8,34.5c9,9.1,21.2,14.1,34.5,14.1c23.4,0,36.1-15,40.4-21.5l2.3-3.3
		l-3.3-2.2L607.1,127l-3.3-2.2l-2.2,3.3c-4.9,7.2-10.8,10.6-18.6,10.6c-6.9,0-12-2.4-15.8-7.6l55.3-22.9l3.7-1.5l-1.5-3.7l-2-5
		C617,83.1,603.1,67.1,580.7,67.1L580.7,67.1z M562.7,108.1c1-4.5,3.2-7.6,5.2-9.6c4.4-4.5,9.9-6.1,13.5-6.1c4.2,0,8,1.4,10.5,3.6
		L562.7,108.1L562.7,108.1z"/>
</g>
<g id="path12" inkscape:connector-curvature="0" inkscape:export-xdpi="70.881676" inkscape:export-ydpi="70.881676">
	<path class="st0" d="M149.3,162.2c-19,0-37.1-7.4-50.8-20.9C84.7,127.8,77.1,110,77.1,91s7.6-36.8,21.4-50.3
		c13.7-13.5,31.8-20.9,50.8-20.9c19,0,35,6.4,48.8,19.6l1.5,1.4L183.4,57l-1.4-1.3c-9.2-8.6-20.2-13-32.7-13
		c-26.7,0-47.6,21.2-47.6,48.3s20.9,48.3,47.6,48.3c18.2,0,27.8-7.6,33.5-13.3c4.8-4.8,7.9-11.4,9.3-20l-44.9,0V83.2h67.4l0.3,1.6
		c0.6,3.4,1,7.4,1,11.8c0,10.7-2.2,30.9-17,45.6C186.1,155.7,169.8,162.2,149.3,162.2z"/>
	<path d="M149.3,21.8c21.1,0,36.1,8.3,47.4,19.1l-13.3,13.3c-8.1-7.6-19.1-13.5-34.1-13.5c-27.8,0-49.6,22.4-49.6,50.3
		s21.8,50.3,49.6,50.3c18.1,0,28.3-7.3,34.9-13.8c5.3-5.3,8.9-13,10.2-23.4l-45.2,0V85.2H213c0.6,3.3,0.9,7.2,0.9,11.4
		c0,14.2-3.9,31.7-16.4,44.2c-12.2,12.7-27.7,19.4-48.3,19.4c-38.1,0-70.2-31.1-70.2-69.2S111.2,21.8,149.3,21.8 M149.3,17.8
		c-19.6,0-38.1,7.6-52.2,21.4c-14.2,13.9-22,32.3-22,51.8s7.8,37.8,22,51.8c14.1,13.8,32.6,21.4,52.2,21.4
		c21.1,0,37.8-6.7,51.1-20.6c15.2-15.3,17.5-36,17.5-47c0-4.5-0.3-8.6-1-12.2l-0.6-3.3H213h-63.7h-4v4v18.9v4l4,0l40.4,0
		c-1.5,7.1-4.3,12.5-8.3,16.6c-5.4,5.4-14.7,12.7-32.1,12.7c-25.6,0-45.6-20.3-45.6-46.3s20-46.3,45.6-46.3
		c12.2,0,22.4,4.1,31.4,12.4l2.8,2.7l2.7-2.7l13.3-13.3l2.9-2.9l-3-2.8C185.3,24.4,168.9,17.8,149.3,17.8L149.3,17.8z"/>
</g>
</svg>
