<?xml version="1.0" encoding="UTF-8"?>
<svg id="Camada_1" data-name="Camada 1" xmlns="http://www.w3.org/2000/svg" version="1.1" viewBox="0 0 100 100">
  <defs>
    <style>
      .cls-1 {
        fill: #cef4f3;
      }

      .cls-1, .cls-2 {
        stroke-width: 0px;
      }

      .cls-2 {
        fill: #417272;
      }
    </style>
  </defs>
  <circle class="cls-2" cx="50" cy="50" r="50"/>
  <g>
    <path class="cls-1" d="M50,79.1c-15.9,0-29.1-13.1-29.1-29.1s13.1-29.1,29.1-29.1,29.1,13.1,29.1,29.1-13.1,29.1-29.1,29.1ZM50,24.3c-14.2,0-25.7,11.5-25.7,25.7s11.5,25.7,25.7,25.7,25.7-11.5,25.7-25.7-11.5-25.7-25.7-25.7Z"/>
    <path class="cls-1" d="M57.1,53.9l5.8,1.8c-.9,3.2-2.3,5.7-4.4,7.3-2.1,1.6-4.8,2.3-8,2.3s-7.3-1.4-9.7-4.1-3.9-6.4-3.9-11.2,1.2-8.9,3.9-11.5c2.7-2.8,6-4.1,10.1-4.1s6.6,1.1,8.9,3.2c1.4,1.2,2.3,3.2,3,5.5l-6,1.4c-.4-1.6-1.1-2.8-2.1-3.7s-2.5-1.4-4.1-1.4c-2.3,0-4.1.7-5.3,2.3-1.4,1.6-2.1,4.3-2.1,7.8s.7,6.6,2.1,8.2c1.4,1.6,3.2,2.5,5.3,2.5s3-.5,4.1-1.6c1.2-.7,1.9-2.3,2.5-4.6Z"/>
  </g>
</svg>