<?xml version="1.0" encoding="utf-8"?>
<!-- Generator: Adobe Illustrator 27.9.2, SVG Export Plug-In . SVG Version: 6.00 Build 0)  -->
<svg version="1.1" id="Layer_1" xmlns="http://www.w3.org/2000/svg" xmlns:xlink="http://www.w3.org/1999/xlink" x="0px" y="0px"
	 viewBox="0 0 512 512" style="enable-background:new 0 0 512 512;" xml:space="preserve">
<path d="M469.3,512H42.7V64c0-35.3,28.7-64,64-64h298.7c35.3,0,64,28.7,64,64V512z M85.3,469.3h341.3V64c0-11.8-9.6-21.3-21.3-21.3
	H106.7c-11.8,0-21.3,9.6-21.3,21.3V469.3z M236.3,101.3H116v120.3h120.3V101.3z M236.3,281.7H116V402h120.3V281.7z M392.3,101.3H272
	v120.3h120.3V101.3z M392.3,281.7H272V402h120.3V281.7z"/>
</svg>
